G04 #@! TF.GenerationSoftware,KiCad,Pcbnew,5.1.5-52549c5~84~ubuntu19.10.1*
G04 #@! TF.CreationDate,2020-03-08T15:39:51+01:00*
G04 #@! TF.ProjectId,Z80_minimal,5a38305f-6d69-46e6-996d-616c2e6b6963,rev?*
G04 #@! TF.SameCoordinates,Original*
G04 #@! TF.FileFunction,Legend,Top*
G04 #@! TF.FilePolarity,Positive*
%FSLAX46Y46*%
G04 Gerber Fmt 4.6, Leading zero omitted, Abs format (unit mm)*
G04 Created by KiCad (PCBNEW 5.1.5-52549c5~84~ubuntu19.10.1) date 2020-03-08 15:39:51*
%MOMM*%
%LPD*%
G04 APERTURE LIST*
%ADD10C,0.150000*%
%ADD11C,0.010000*%
%ADD12C,0.120000*%
G04 APERTURE END LIST*
D10*
X129665904Y-143124380D02*
X129665904Y-142457714D01*
X129665904Y-142648190D02*
X129713523Y-142552952D01*
X129761142Y-142505333D01*
X129856380Y-142457714D01*
X129951619Y-142457714D01*
X130665904Y-143076761D02*
X130570666Y-143124380D01*
X130380190Y-143124380D01*
X130284952Y-143076761D01*
X130237333Y-142981523D01*
X130237333Y-142600571D01*
X130284952Y-142505333D01*
X130380190Y-142457714D01*
X130570666Y-142457714D01*
X130665904Y-142505333D01*
X130713523Y-142600571D01*
X130713523Y-142695809D01*
X130237333Y-142791047D01*
X131046857Y-142457714D02*
X131284952Y-143124380D01*
X131523047Y-142457714D01*
X132856380Y-142124380D02*
X132951619Y-142124380D01*
X133046857Y-142172000D01*
X133094476Y-142219619D01*
X133142095Y-142314857D01*
X133189714Y-142505333D01*
X133189714Y-142743428D01*
X133142095Y-142933904D01*
X133094476Y-143029142D01*
X133046857Y-143076761D01*
X132951619Y-143124380D01*
X132856380Y-143124380D01*
X132761142Y-143076761D01*
X132713523Y-143029142D01*
X132665904Y-142933904D01*
X132618285Y-142743428D01*
X132618285Y-142505333D01*
X132665904Y-142314857D01*
X132713523Y-142219619D01*
X132761142Y-142172000D01*
X132856380Y-142124380D01*
X104765904Y-119121380D02*
X104432571Y-118645190D01*
X104194476Y-119121380D02*
X104194476Y-118121380D01*
X104575428Y-118121380D01*
X104670666Y-118169000D01*
X104718285Y-118216619D01*
X104765904Y-118311857D01*
X104765904Y-118454714D01*
X104718285Y-118549952D01*
X104670666Y-118597571D01*
X104575428Y-118645190D01*
X104194476Y-118645190D01*
X105575428Y-119073761D02*
X105480190Y-119121380D01*
X105289714Y-119121380D01*
X105194476Y-119073761D01*
X105146857Y-118978523D01*
X105146857Y-118597571D01*
X105194476Y-118502333D01*
X105289714Y-118454714D01*
X105480190Y-118454714D01*
X105575428Y-118502333D01*
X105623047Y-118597571D01*
X105623047Y-118692809D01*
X105146857Y-118788047D01*
X106004000Y-119073761D02*
X106099238Y-119121380D01*
X106289714Y-119121380D01*
X106384952Y-119073761D01*
X106432571Y-118978523D01*
X106432571Y-118930904D01*
X106384952Y-118835666D01*
X106289714Y-118788047D01*
X106146857Y-118788047D01*
X106051619Y-118740428D01*
X106004000Y-118645190D01*
X106004000Y-118597571D01*
X106051619Y-118502333D01*
X106146857Y-118454714D01*
X106289714Y-118454714D01*
X106384952Y-118502333D01*
X107242095Y-119073761D02*
X107146857Y-119121380D01*
X106956380Y-119121380D01*
X106861142Y-119073761D01*
X106813523Y-118978523D01*
X106813523Y-118597571D01*
X106861142Y-118502333D01*
X106956380Y-118454714D01*
X107146857Y-118454714D01*
X107242095Y-118502333D01*
X107289714Y-118597571D01*
X107289714Y-118692809D01*
X106813523Y-118788047D01*
X107575428Y-118454714D02*
X107956380Y-118454714D01*
X107718285Y-118121380D02*
X107718285Y-118978523D01*
X107765904Y-119073761D01*
X107861142Y-119121380D01*
X107956380Y-119121380D01*
X104765904Y-103786142D02*
X104718285Y-103833761D01*
X104575428Y-103881380D01*
X104480190Y-103881380D01*
X104337333Y-103833761D01*
X104242095Y-103738523D01*
X104194476Y-103643285D01*
X104146857Y-103452809D01*
X104146857Y-103309952D01*
X104194476Y-103119476D01*
X104242095Y-103024238D01*
X104337333Y-102929000D01*
X104480190Y-102881380D01*
X104575428Y-102881380D01*
X104718285Y-102929000D01*
X104765904Y-102976619D01*
X105337333Y-103881380D02*
X105242095Y-103833761D01*
X105194476Y-103738523D01*
X105194476Y-102881380D01*
X105861142Y-103881380D02*
X105765904Y-103833761D01*
X105718285Y-103786142D01*
X105670666Y-103690904D01*
X105670666Y-103405190D01*
X105718285Y-103309952D01*
X105765904Y-103262333D01*
X105861142Y-103214714D01*
X106004000Y-103214714D01*
X106099238Y-103262333D01*
X106146857Y-103309952D01*
X106194476Y-103405190D01*
X106194476Y-103690904D01*
X106146857Y-103786142D01*
X106099238Y-103833761D01*
X106004000Y-103881380D01*
X105861142Y-103881380D01*
X107051619Y-103833761D02*
X106956380Y-103881380D01*
X106765904Y-103881380D01*
X106670666Y-103833761D01*
X106623047Y-103786142D01*
X106575428Y-103690904D01*
X106575428Y-103405190D01*
X106623047Y-103309952D01*
X106670666Y-103262333D01*
X106765904Y-103214714D01*
X106956380Y-103214714D01*
X107051619Y-103262333D01*
X107480190Y-103881380D02*
X107480190Y-102881380D01*
X107575428Y-103500428D02*
X107861142Y-103881380D01*
X107861142Y-103214714D02*
X107480190Y-103595666D01*
X190992285Y-133167428D02*
X191754190Y-133167428D01*
X191373238Y-133548380D02*
X191373238Y-132786476D01*
X192706571Y-132548380D02*
X192230380Y-132548380D01*
X192182761Y-133024571D01*
X192230380Y-132976952D01*
X192325619Y-132929333D01*
X192563714Y-132929333D01*
X192658952Y-132976952D01*
X192706571Y-133024571D01*
X192754190Y-133119809D01*
X192754190Y-133357904D01*
X192706571Y-133453142D01*
X192658952Y-133500761D01*
X192563714Y-133548380D01*
X192325619Y-133548380D01*
X192230380Y-133500761D01*
X192182761Y-133453142D01*
X193039904Y-132548380D02*
X193373238Y-133548380D01*
X193706571Y-132548380D01*
X129866095Y-54919571D02*
X130008952Y-54967190D01*
X130056571Y-55014809D01*
X130104190Y-55110047D01*
X130104190Y-55252904D01*
X130056571Y-55348142D01*
X130008952Y-55395761D01*
X129913714Y-55443380D01*
X129532761Y-55443380D01*
X129532761Y-54443380D01*
X129866095Y-54443380D01*
X129961333Y-54491000D01*
X130008952Y-54538619D01*
X130056571Y-54633857D01*
X130056571Y-54729095D01*
X130008952Y-54824333D01*
X129961333Y-54871952D01*
X129866095Y-54919571D01*
X129532761Y-54919571D01*
X130961333Y-54776714D02*
X130961333Y-55443380D01*
X130532761Y-54776714D02*
X130532761Y-55300523D01*
X130580380Y-55395761D01*
X130675619Y-55443380D01*
X130818476Y-55443380D01*
X130913714Y-55395761D01*
X130961333Y-55348142D01*
X131389904Y-55395761D02*
X131485142Y-55443380D01*
X131675619Y-55443380D01*
X131770857Y-55395761D01*
X131818476Y-55300523D01*
X131818476Y-55252904D01*
X131770857Y-55157666D01*
X131675619Y-55110047D01*
X131532761Y-55110047D01*
X131437523Y-55062428D01*
X131389904Y-54967190D01*
X131389904Y-54919571D01*
X131437523Y-54824333D01*
X131532761Y-54776714D01*
X131675619Y-54776714D01*
X131770857Y-54824333D01*
X133008952Y-55443380D02*
X133008952Y-54443380D01*
X133342285Y-55157666D01*
X133675619Y-54443380D01*
X133675619Y-55443380D01*
X134580380Y-54776714D02*
X134580380Y-55443380D01*
X134151809Y-54776714D02*
X134151809Y-55300523D01*
X134199428Y-55395761D01*
X134294666Y-55443380D01*
X134437523Y-55443380D01*
X134532761Y-55395761D01*
X134580380Y-55348142D01*
X135199428Y-55443380D02*
X135104190Y-55395761D01*
X135056571Y-55300523D01*
X135056571Y-54443380D01*
X135437523Y-54776714D02*
X135818476Y-54776714D01*
X135580380Y-54443380D02*
X135580380Y-55300523D01*
X135628000Y-55395761D01*
X135723238Y-55443380D01*
X135818476Y-55443380D01*
X136151809Y-55443380D02*
X136151809Y-54776714D01*
X136151809Y-54443380D02*
X136104190Y-54491000D01*
X136151809Y-54538619D01*
X136199428Y-54491000D01*
X136151809Y-54443380D01*
X136151809Y-54538619D01*
X136628000Y-54776714D02*
X136628000Y-55776714D01*
X136628000Y-54824333D02*
X136723238Y-54776714D01*
X136913714Y-54776714D01*
X137008952Y-54824333D01*
X137056571Y-54871952D01*
X137104190Y-54967190D01*
X137104190Y-55252904D01*
X137056571Y-55348142D01*
X137008952Y-55395761D01*
X136913714Y-55443380D01*
X136723238Y-55443380D01*
X136628000Y-55395761D01*
X137675619Y-55443380D02*
X137580380Y-55395761D01*
X137532761Y-55300523D01*
X137532761Y-54443380D01*
X138437523Y-55395761D02*
X138342285Y-55443380D01*
X138151809Y-55443380D01*
X138056571Y-55395761D01*
X138008952Y-55300523D01*
X138008952Y-54919571D01*
X138056571Y-54824333D01*
X138151809Y-54776714D01*
X138342285Y-54776714D01*
X138437523Y-54824333D01*
X138485142Y-54919571D01*
X138485142Y-55014809D01*
X138008952Y-55110047D01*
X138818476Y-55443380D02*
X139342285Y-54776714D01*
X138818476Y-54776714D02*
X139342285Y-55443380D01*
X140104190Y-55395761D02*
X140008952Y-55443380D01*
X139818476Y-55443380D01*
X139723238Y-55395761D01*
X139675619Y-55300523D01*
X139675619Y-54919571D01*
X139723238Y-54824333D01*
X139818476Y-54776714D01*
X140008952Y-54776714D01*
X140104190Y-54824333D01*
X140151809Y-54919571D01*
X140151809Y-55014809D01*
X139675619Y-55110047D01*
X140580380Y-55443380D02*
X140580380Y-54776714D01*
X140580380Y-54967190D02*
X140628000Y-54871952D01*
X140675619Y-54824333D01*
X140770857Y-54776714D01*
X140866095Y-54776714D01*
X161957428Y-132389571D02*
X162100285Y-132437190D01*
X162147904Y-132484809D01*
X162195523Y-132580047D01*
X162195523Y-132722904D01*
X162147904Y-132818142D01*
X162100285Y-132865761D01*
X162005047Y-132913380D01*
X161624095Y-132913380D01*
X161624095Y-131913380D01*
X161957428Y-131913380D01*
X162052666Y-131961000D01*
X162100285Y-132008619D01*
X162147904Y-132103857D01*
X162147904Y-132199095D01*
X162100285Y-132294333D01*
X162052666Y-132341952D01*
X161957428Y-132389571D01*
X161624095Y-132389571D01*
X163052666Y-132246714D02*
X163052666Y-132913380D01*
X162624095Y-132246714D02*
X162624095Y-132770523D01*
X162671714Y-132865761D01*
X162766952Y-132913380D01*
X162909809Y-132913380D01*
X163005047Y-132865761D01*
X163052666Y-132818142D01*
X163481238Y-132865761D02*
X163576476Y-132913380D01*
X163766952Y-132913380D01*
X163862190Y-132865761D01*
X163909809Y-132770523D01*
X163909809Y-132722904D01*
X163862190Y-132627666D01*
X163766952Y-132580047D01*
X163624095Y-132580047D01*
X163528857Y-132532428D01*
X163481238Y-132437190D01*
X163481238Y-132389571D01*
X163528857Y-132294333D01*
X163624095Y-132246714D01*
X163766952Y-132246714D01*
X163862190Y-132294333D01*
X164957428Y-132246714D02*
X165338380Y-132246714D01*
X165100285Y-131913380D02*
X165100285Y-132770523D01*
X165147904Y-132865761D01*
X165243142Y-132913380D01*
X165338380Y-132913380D01*
X166052666Y-132865761D02*
X165957428Y-132913380D01*
X165766952Y-132913380D01*
X165671714Y-132865761D01*
X165624095Y-132770523D01*
X165624095Y-132389571D01*
X165671714Y-132294333D01*
X165766952Y-132246714D01*
X165957428Y-132246714D01*
X166052666Y-132294333D01*
X166100285Y-132389571D01*
X166100285Y-132484809D01*
X165624095Y-132580047D01*
X166528857Y-132913380D02*
X166528857Y-132246714D01*
X166528857Y-132437190D02*
X166576476Y-132341952D01*
X166624095Y-132294333D01*
X166719333Y-132246714D01*
X166814571Y-132246714D01*
X167147904Y-132913380D02*
X167147904Y-132246714D01*
X167147904Y-132341952D02*
X167195523Y-132294333D01*
X167290761Y-132246714D01*
X167433619Y-132246714D01*
X167528857Y-132294333D01*
X167576476Y-132389571D01*
X167576476Y-132913380D01*
X167576476Y-132389571D02*
X167624095Y-132294333D01*
X167719333Y-132246714D01*
X167862190Y-132246714D01*
X167957428Y-132294333D01*
X168005047Y-132389571D01*
X168005047Y-132913380D01*
X168481238Y-132913380D02*
X168481238Y-132246714D01*
X168481238Y-131913380D02*
X168433619Y-131961000D01*
X168481238Y-132008619D01*
X168528857Y-131961000D01*
X168481238Y-131913380D01*
X168481238Y-132008619D01*
X168957428Y-132246714D02*
X168957428Y-132913380D01*
X168957428Y-132341952D02*
X169005047Y-132294333D01*
X169100285Y-132246714D01*
X169243142Y-132246714D01*
X169338380Y-132294333D01*
X169386000Y-132389571D01*
X169386000Y-132913380D01*
X170290761Y-132913380D02*
X170290761Y-132389571D01*
X170243142Y-132294333D01*
X170147904Y-132246714D01*
X169957428Y-132246714D01*
X169862190Y-132294333D01*
X170290761Y-132865761D02*
X170195523Y-132913380D01*
X169957428Y-132913380D01*
X169862190Y-132865761D01*
X169814571Y-132770523D01*
X169814571Y-132675285D01*
X169862190Y-132580047D01*
X169957428Y-132532428D01*
X170195523Y-132532428D01*
X170290761Y-132484809D01*
X170624095Y-132246714D02*
X171005047Y-132246714D01*
X170766952Y-131913380D02*
X170766952Y-132770523D01*
X170814571Y-132865761D01*
X170909809Y-132913380D01*
X171005047Y-132913380D01*
X171338380Y-132913380D02*
X171338380Y-132246714D01*
X171338380Y-131913380D02*
X171290761Y-131961000D01*
X171338380Y-132008619D01*
X171386000Y-131961000D01*
X171338380Y-131913380D01*
X171338380Y-132008619D01*
X171957428Y-132913380D02*
X171862190Y-132865761D01*
X171814571Y-132818142D01*
X171766952Y-132722904D01*
X171766952Y-132437190D01*
X171814571Y-132341952D01*
X171862190Y-132294333D01*
X171957428Y-132246714D01*
X172100285Y-132246714D01*
X172195523Y-132294333D01*
X172243142Y-132341952D01*
X172290761Y-132437190D01*
X172290761Y-132722904D01*
X172243142Y-132818142D01*
X172195523Y-132865761D01*
X172100285Y-132913380D01*
X171957428Y-132913380D01*
X172719333Y-132246714D02*
X172719333Y-132913380D01*
X172719333Y-132341952D02*
X172766952Y-132294333D01*
X172862190Y-132246714D01*
X173005047Y-132246714D01*
X173100285Y-132294333D01*
X173147904Y-132389571D01*
X173147904Y-132913380D01*
X105370380Y-74794714D02*
X105370380Y-74128047D01*
X106370380Y-74556619D01*
X105703714Y-73318523D02*
X106370380Y-73318523D01*
X105322761Y-73556619D02*
X106037047Y-73794714D01*
X106037047Y-73175666D01*
X106370380Y-72794714D02*
X105370380Y-72794714D01*
X105846571Y-72794714D02*
X105846571Y-72223285D01*
X106370380Y-72223285D02*
X105370380Y-72223285D01*
X106275142Y-71175666D02*
X106322761Y-71223285D01*
X106370380Y-71366142D01*
X106370380Y-71461380D01*
X106322761Y-71604238D01*
X106227523Y-71699476D01*
X106132285Y-71747095D01*
X105941809Y-71794714D01*
X105798952Y-71794714D01*
X105608476Y-71747095D01*
X105513238Y-71699476D01*
X105418000Y-71604238D01*
X105370380Y-71461380D01*
X105370380Y-71366142D01*
X105418000Y-71223285D01*
X105465619Y-71175666D01*
X105370380Y-70556619D02*
X105370380Y-70461380D01*
X105418000Y-70366142D01*
X105465619Y-70318523D01*
X105560857Y-70270904D01*
X105751333Y-70223285D01*
X105989428Y-70223285D01*
X106179904Y-70270904D01*
X106275142Y-70318523D01*
X106322761Y-70366142D01*
X106370380Y-70461380D01*
X106370380Y-70556619D01*
X106322761Y-70651857D01*
X106275142Y-70699476D01*
X106179904Y-70747095D01*
X105989428Y-70794714D01*
X105751333Y-70794714D01*
X105560857Y-70747095D01*
X105465619Y-70699476D01*
X105418000Y-70651857D01*
X105370380Y-70556619D01*
X105370380Y-69604238D02*
X105370380Y-69509000D01*
X105418000Y-69413761D01*
X105465619Y-69366142D01*
X105560857Y-69318523D01*
X105751333Y-69270904D01*
X105989428Y-69270904D01*
X106179904Y-69318523D01*
X106275142Y-69366142D01*
X106322761Y-69413761D01*
X106370380Y-69509000D01*
X106370380Y-69604238D01*
X106322761Y-69699476D01*
X106275142Y-69747095D01*
X106179904Y-69794714D01*
X105989428Y-69842333D01*
X105751333Y-69842333D01*
X105560857Y-69794714D01*
X105465619Y-69747095D01*
X105418000Y-69699476D01*
X105370380Y-69604238D01*
X127492285Y-89495380D02*
X128158952Y-89495380D01*
X127492285Y-90495380D01*
X128158952Y-90495380D01*
X128682761Y-89923952D02*
X128587523Y-89876333D01*
X128539904Y-89828714D01*
X128492285Y-89733476D01*
X128492285Y-89685857D01*
X128539904Y-89590619D01*
X128587523Y-89543000D01*
X128682761Y-89495380D01*
X128873238Y-89495380D01*
X128968476Y-89543000D01*
X129016095Y-89590619D01*
X129063714Y-89685857D01*
X129063714Y-89733476D01*
X129016095Y-89828714D01*
X128968476Y-89876333D01*
X128873238Y-89923952D01*
X128682761Y-89923952D01*
X128587523Y-89971571D01*
X128539904Y-90019190D01*
X128492285Y-90114428D01*
X128492285Y-90304904D01*
X128539904Y-90400142D01*
X128587523Y-90447761D01*
X128682761Y-90495380D01*
X128873238Y-90495380D01*
X128968476Y-90447761D01*
X129016095Y-90400142D01*
X129063714Y-90304904D01*
X129063714Y-90114428D01*
X129016095Y-90019190D01*
X128968476Y-89971571D01*
X128873238Y-89923952D01*
X129682761Y-89495380D02*
X129778000Y-89495380D01*
X129873238Y-89543000D01*
X129920857Y-89590619D01*
X129968476Y-89685857D01*
X130016095Y-89876333D01*
X130016095Y-90114428D01*
X129968476Y-90304904D01*
X129920857Y-90400142D01*
X129873238Y-90447761D01*
X129778000Y-90495380D01*
X129682761Y-90495380D01*
X129587523Y-90447761D01*
X129539904Y-90400142D01*
X129492285Y-90304904D01*
X129444666Y-90114428D01*
X129444666Y-89876333D01*
X129492285Y-89685857D01*
X129539904Y-89590619D01*
X129587523Y-89543000D01*
X129682761Y-89495380D01*
X173387428Y-54919571D02*
X173530285Y-54967190D01*
X173577904Y-55014809D01*
X173625523Y-55110047D01*
X173625523Y-55252904D01*
X173577904Y-55348142D01*
X173530285Y-55395761D01*
X173435047Y-55443380D01*
X173054095Y-55443380D01*
X173054095Y-54443380D01*
X173387428Y-54443380D01*
X173482666Y-54491000D01*
X173530285Y-54538619D01*
X173577904Y-54633857D01*
X173577904Y-54729095D01*
X173530285Y-54824333D01*
X173482666Y-54871952D01*
X173387428Y-54919571D01*
X173054095Y-54919571D01*
X174482666Y-54776714D02*
X174482666Y-55443380D01*
X174054095Y-54776714D02*
X174054095Y-55300523D01*
X174101714Y-55395761D01*
X174196952Y-55443380D01*
X174339809Y-55443380D01*
X174435047Y-55395761D01*
X174482666Y-55348142D01*
X174911238Y-55395761D02*
X175006476Y-55443380D01*
X175196952Y-55443380D01*
X175292190Y-55395761D01*
X175339809Y-55300523D01*
X175339809Y-55252904D01*
X175292190Y-55157666D01*
X175196952Y-55110047D01*
X175054095Y-55110047D01*
X174958857Y-55062428D01*
X174911238Y-54967190D01*
X174911238Y-54919571D01*
X174958857Y-54824333D01*
X175054095Y-54776714D01*
X175196952Y-54776714D01*
X175292190Y-54824333D01*
X176387428Y-54776714D02*
X176768380Y-54776714D01*
X176530285Y-54443380D02*
X176530285Y-55300523D01*
X176577904Y-55395761D01*
X176673142Y-55443380D01*
X176768380Y-55443380D01*
X177482666Y-55395761D02*
X177387428Y-55443380D01*
X177196952Y-55443380D01*
X177101714Y-55395761D01*
X177054095Y-55300523D01*
X177054095Y-54919571D01*
X177101714Y-54824333D01*
X177196952Y-54776714D01*
X177387428Y-54776714D01*
X177482666Y-54824333D01*
X177530285Y-54919571D01*
X177530285Y-55014809D01*
X177054095Y-55110047D01*
X177958857Y-55443380D02*
X177958857Y-54776714D01*
X177958857Y-54967190D02*
X178006476Y-54871952D01*
X178054095Y-54824333D01*
X178149333Y-54776714D01*
X178244571Y-54776714D01*
X178577904Y-55443380D02*
X178577904Y-54776714D01*
X178577904Y-54871952D02*
X178625523Y-54824333D01*
X178720761Y-54776714D01*
X178863619Y-54776714D01*
X178958857Y-54824333D01*
X179006476Y-54919571D01*
X179006476Y-55443380D01*
X179006476Y-54919571D02*
X179054095Y-54824333D01*
X179149333Y-54776714D01*
X179292190Y-54776714D01*
X179387428Y-54824333D01*
X179435047Y-54919571D01*
X179435047Y-55443380D01*
X179911238Y-55443380D02*
X179911238Y-54776714D01*
X179911238Y-54443380D02*
X179863619Y-54491000D01*
X179911238Y-54538619D01*
X179958857Y-54491000D01*
X179911238Y-54443380D01*
X179911238Y-54538619D01*
X180387428Y-54776714D02*
X180387428Y-55443380D01*
X180387428Y-54871952D02*
X180435047Y-54824333D01*
X180530285Y-54776714D01*
X180673142Y-54776714D01*
X180768380Y-54824333D01*
X180816000Y-54919571D01*
X180816000Y-55443380D01*
X181720761Y-55443380D02*
X181720761Y-54919571D01*
X181673142Y-54824333D01*
X181577904Y-54776714D01*
X181387428Y-54776714D01*
X181292190Y-54824333D01*
X181720761Y-55395761D02*
X181625523Y-55443380D01*
X181387428Y-55443380D01*
X181292190Y-55395761D01*
X181244571Y-55300523D01*
X181244571Y-55205285D01*
X181292190Y-55110047D01*
X181387428Y-55062428D01*
X181625523Y-55062428D01*
X181720761Y-55014809D01*
X182054095Y-54776714D02*
X182435047Y-54776714D01*
X182196952Y-54443380D02*
X182196952Y-55300523D01*
X182244571Y-55395761D01*
X182339809Y-55443380D01*
X182435047Y-55443380D01*
X182768380Y-55443380D02*
X182768380Y-54776714D01*
X182768380Y-54443380D02*
X182720761Y-54491000D01*
X182768380Y-54538619D01*
X182816000Y-54491000D01*
X182768380Y-54443380D01*
X182768380Y-54538619D01*
X183387428Y-55443380D02*
X183292190Y-55395761D01*
X183244571Y-55348142D01*
X183196952Y-55252904D01*
X183196952Y-54967190D01*
X183244571Y-54871952D01*
X183292190Y-54824333D01*
X183387428Y-54776714D01*
X183530285Y-54776714D01*
X183625523Y-54824333D01*
X183673142Y-54871952D01*
X183720761Y-54967190D01*
X183720761Y-55252904D01*
X183673142Y-55348142D01*
X183625523Y-55395761D01*
X183530285Y-55443380D01*
X183387428Y-55443380D01*
X184149333Y-54776714D02*
X184149333Y-55443380D01*
X184149333Y-54871952D02*
X184196952Y-54824333D01*
X184292190Y-54776714D01*
X184435047Y-54776714D01*
X184530285Y-54824333D01*
X184577904Y-54919571D01*
X184577904Y-55443380D01*
X151289428Y-54919571D02*
X151432285Y-54967190D01*
X151479904Y-55014809D01*
X151527523Y-55110047D01*
X151527523Y-55252904D01*
X151479904Y-55348142D01*
X151432285Y-55395761D01*
X151337047Y-55443380D01*
X150956095Y-55443380D01*
X150956095Y-54443380D01*
X151289428Y-54443380D01*
X151384666Y-54491000D01*
X151432285Y-54538619D01*
X151479904Y-54633857D01*
X151479904Y-54729095D01*
X151432285Y-54824333D01*
X151384666Y-54871952D01*
X151289428Y-54919571D01*
X150956095Y-54919571D01*
X152384666Y-54776714D02*
X152384666Y-55443380D01*
X151956095Y-54776714D02*
X151956095Y-55300523D01*
X152003714Y-55395761D01*
X152098952Y-55443380D01*
X152241809Y-55443380D01*
X152337047Y-55395761D01*
X152384666Y-55348142D01*
X152813238Y-55395761D02*
X152908476Y-55443380D01*
X153098952Y-55443380D01*
X153194190Y-55395761D01*
X153241809Y-55300523D01*
X153241809Y-55252904D01*
X153194190Y-55157666D01*
X153098952Y-55110047D01*
X152956095Y-55110047D01*
X152860857Y-55062428D01*
X152813238Y-54967190D01*
X152813238Y-54919571D01*
X152860857Y-54824333D01*
X152956095Y-54776714D01*
X153098952Y-54776714D01*
X153194190Y-54824333D01*
X154289428Y-54776714D02*
X154670380Y-54776714D01*
X154432285Y-54443380D02*
X154432285Y-55300523D01*
X154479904Y-55395761D01*
X154575142Y-55443380D01*
X154670380Y-55443380D01*
X155384666Y-55395761D02*
X155289428Y-55443380D01*
X155098952Y-55443380D01*
X155003714Y-55395761D01*
X154956095Y-55300523D01*
X154956095Y-54919571D01*
X155003714Y-54824333D01*
X155098952Y-54776714D01*
X155289428Y-54776714D01*
X155384666Y-54824333D01*
X155432285Y-54919571D01*
X155432285Y-55014809D01*
X154956095Y-55110047D01*
X155860857Y-55443380D02*
X155860857Y-54776714D01*
X155860857Y-54967190D02*
X155908476Y-54871952D01*
X155956095Y-54824333D01*
X156051333Y-54776714D01*
X156146571Y-54776714D01*
X156479904Y-55443380D02*
X156479904Y-54776714D01*
X156479904Y-54871952D02*
X156527523Y-54824333D01*
X156622761Y-54776714D01*
X156765619Y-54776714D01*
X156860857Y-54824333D01*
X156908476Y-54919571D01*
X156908476Y-55443380D01*
X156908476Y-54919571D02*
X156956095Y-54824333D01*
X157051333Y-54776714D01*
X157194190Y-54776714D01*
X157289428Y-54824333D01*
X157337047Y-54919571D01*
X157337047Y-55443380D01*
X157813238Y-55443380D02*
X157813238Y-54776714D01*
X157813238Y-54443380D02*
X157765619Y-54491000D01*
X157813238Y-54538619D01*
X157860857Y-54491000D01*
X157813238Y-54443380D01*
X157813238Y-54538619D01*
X158289428Y-54776714D02*
X158289428Y-55443380D01*
X158289428Y-54871952D02*
X158337047Y-54824333D01*
X158432285Y-54776714D01*
X158575142Y-54776714D01*
X158670380Y-54824333D01*
X158718000Y-54919571D01*
X158718000Y-55443380D01*
X159622761Y-55443380D02*
X159622761Y-54919571D01*
X159575142Y-54824333D01*
X159479904Y-54776714D01*
X159289428Y-54776714D01*
X159194190Y-54824333D01*
X159622761Y-55395761D02*
X159527523Y-55443380D01*
X159289428Y-55443380D01*
X159194190Y-55395761D01*
X159146571Y-55300523D01*
X159146571Y-55205285D01*
X159194190Y-55110047D01*
X159289428Y-55062428D01*
X159527523Y-55062428D01*
X159622761Y-55014809D01*
X159956095Y-54776714D02*
X160337047Y-54776714D01*
X160098952Y-54443380D02*
X160098952Y-55300523D01*
X160146571Y-55395761D01*
X160241809Y-55443380D01*
X160337047Y-55443380D01*
X160670380Y-55443380D02*
X160670380Y-54776714D01*
X160670380Y-54443380D02*
X160622761Y-54491000D01*
X160670380Y-54538619D01*
X160718000Y-54491000D01*
X160670380Y-54443380D01*
X160670380Y-54538619D01*
X161289428Y-55443380D02*
X161194190Y-55395761D01*
X161146571Y-55348142D01*
X161098952Y-55252904D01*
X161098952Y-54967190D01*
X161146571Y-54871952D01*
X161194190Y-54824333D01*
X161289428Y-54776714D01*
X161432285Y-54776714D01*
X161527523Y-54824333D01*
X161575142Y-54871952D01*
X161622761Y-54967190D01*
X161622761Y-55252904D01*
X161575142Y-55348142D01*
X161527523Y-55395761D01*
X161432285Y-55443380D01*
X161289428Y-55443380D01*
X162051333Y-54776714D02*
X162051333Y-55443380D01*
X162051333Y-54871952D02*
X162098952Y-54824333D01*
X162194190Y-54776714D01*
X162337047Y-54776714D01*
X162432285Y-54824333D01*
X162479904Y-54919571D01*
X162479904Y-55443380D01*
X146701333Y-84336380D02*
X146701333Y-83336380D01*
X146701333Y-83812571D02*
X147272761Y-83812571D01*
X147272761Y-84336380D02*
X147272761Y-83336380D01*
X147748952Y-84336380D02*
X147748952Y-83336380D01*
X148082285Y-84050666D01*
X148415619Y-83336380D01*
X148415619Y-84336380D01*
X149320380Y-83336380D02*
X149129904Y-83336380D01*
X149034666Y-83384000D01*
X148987047Y-83431619D01*
X148891809Y-83574476D01*
X148844190Y-83764952D01*
X148844190Y-84145904D01*
X148891809Y-84241142D01*
X148939428Y-84288761D01*
X149034666Y-84336380D01*
X149225142Y-84336380D01*
X149320380Y-84288761D01*
X149368000Y-84241142D01*
X149415619Y-84145904D01*
X149415619Y-83907809D01*
X149368000Y-83812571D01*
X149320380Y-83764952D01*
X149225142Y-83717333D01*
X149034666Y-83717333D01*
X148939428Y-83764952D01*
X148891809Y-83812571D01*
X148844190Y-83907809D01*
X149796571Y-83431619D02*
X149844190Y-83384000D01*
X149939428Y-83336380D01*
X150177523Y-83336380D01*
X150272761Y-83384000D01*
X150320380Y-83431619D01*
X150368000Y-83526857D01*
X150368000Y-83622095D01*
X150320380Y-83764952D01*
X149748952Y-84336380D01*
X150368000Y-84336380D01*
X150748952Y-83431619D02*
X150796571Y-83384000D01*
X150891809Y-83336380D01*
X151129904Y-83336380D01*
X151225142Y-83384000D01*
X151272761Y-83431619D01*
X151320380Y-83526857D01*
X151320380Y-83622095D01*
X151272761Y-83764952D01*
X150701333Y-84336380D01*
X151320380Y-84336380D01*
X152225142Y-83336380D02*
X151748952Y-83336380D01*
X151701333Y-83812571D01*
X151748952Y-83764952D01*
X151844190Y-83717333D01*
X152082285Y-83717333D01*
X152177523Y-83764952D01*
X152225142Y-83812571D01*
X152272761Y-83907809D01*
X152272761Y-84145904D01*
X152225142Y-84241142D01*
X152177523Y-84288761D01*
X152082285Y-84336380D01*
X151844190Y-84336380D01*
X151748952Y-84288761D01*
X151701333Y-84241142D01*
X153129904Y-83336380D02*
X152939428Y-83336380D01*
X152844190Y-83384000D01*
X152796571Y-83431619D01*
X152701333Y-83574476D01*
X152653714Y-83764952D01*
X152653714Y-84145904D01*
X152701333Y-84241142D01*
X152748952Y-84288761D01*
X152844190Y-84336380D01*
X153034666Y-84336380D01*
X153129904Y-84288761D01*
X153177523Y-84241142D01*
X153225142Y-84145904D01*
X153225142Y-83907809D01*
X153177523Y-83812571D01*
X153129904Y-83764952D01*
X153034666Y-83717333D01*
X152844190Y-83717333D01*
X152748952Y-83764952D01*
X152701333Y-83812571D01*
X152653714Y-83907809D01*
X153606095Y-84050666D02*
X154082285Y-84050666D01*
X153510857Y-84336380D02*
X153844190Y-83336380D01*
X154177523Y-84336380D01*
X146701333Y-84986380D02*
X147320380Y-84986380D01*
X146987047Y-85367333D01*
X147129904Y-85367333D01*
X147225142Y-85414952D01*
X147272761Y-85462571D01*
X147320380Y-85557809D01*
X147320380Y-85795904D01*
X147272761Y-85891142D01*
X147225142Y-85938761D01*
X147129904Y-85986380D01*
X146844190Y-85986380D01*
X146748952Y-85938761D01*
X146701333Y-85891142D01*
X147701333Y-85081619D02*
X147748952Y-85034000D01*
X147844190Y-84986380D01*
X148082285Y-84986380D01*
X148177523Y-85034000D01*
X148225142Y-85081619D01*
X148272761Y-85176857D01*
X148272761Y-85272095D01*
X148225142Y-85414952D01*
X147653714Y-85986380D01*
X148272761Y-85986380D01*
X148701333Y-85986380D02*
X148701333Y-84986380D01*
X149272761Y-85986380D02*
X148844190Y-85414952D01*
X149272761Y-84986380D02*
X148701333Y-85557809D01*
X150415619Y-85938761D02*
X150558476Y-85986380D01*
X150796571Y-85986380D01*
X150891809Y-85938761D01*
X150939428Y-85891142D01*
X150987047Y-85795904D01*
X150987047Y-85700666D01*
X150939428Y-85605428D01*
X150891809Y-85557809D01*
X150796571Y-85510190D01*
X150606095Y-85462571D01*
X150510857Y-85414952D01*
X150463238Y-85367333D01*
X150415619Y-85272095D01*
X150415619Y-85176857D01*
X150463238Y-85081619D01*
X150510857Y-85034000D01*
X150606095Y-84986380D01*
X150844190Y-84986380D01*
X150987047Y-85034000D01*
X151987047Y-85986380D02*
X151653714Y-85510190D01*
X151415619Y-85986380D02*
X151415619Y-84986380D01*
X151796571Y-84986380D01*
X151891809Y-85034000D01*
X151939428Y-85081619D01*
X151987047Y-85176857D01*
X151987047Y-85319714D01*
X151939428Y-85414952D01*
X151891809Y-85462571D01*
X151796571Y-85510190D01*
X151415619Y-85510190D01*
X152368000Y-85700666D02*
X152844190Y-85700666D01*
X152272761Y-85986380D02*
X152606095Y-84986380D01*
X152939428Y-85986380D01*
X153272761Y-85986380D02*
X153272761Y-84986380D01*
X153606095Y-85700666D01*
X153939428Y-84986380D01*
X153939428Y-85986380D01*
X168243714Y-84336380D02*
X168243714Y-83336380D01*
X168577047Y-84050666D01*
X168910380Y-83336380D01*
X168910380Y-84336380D01*
X169338952Y-83431619D02*
X169386571Y-83384000D01*
X169481809Y-83336380D01*
X169719904Y-83336380D01*
X169815142Y-83384000D01*
X169862761Y-83431619D01*
X169910380Y-83526857D01*
X169910380Y-83622095D01*
X169862761Y-83764952D01*
X169291333Y-84336380D01*
X169910380Y-84336380D01*
X170243714Y-83336380D02*
X170910380Y-83336380D01*
X170481809Y-84336380D01*
X171862761Y-84241142D02*
X171815142Y-84288761D01*
X171672285Y-84336380D01*
X171577047Y-84336380D01*
X171434190Y-84288761D01*
X171338952Y-84193523D01*
X171291333Y-84098285D01*
X171243714Y-83907809D01*
X171243714Y-83764952D01*
X171291333Y-83574476D01*
X171338952Y-83479238D01*
X171434190Y-83384000D01*
X171577047Y-83336380D01*
X171672285Y-83336380D01*
X171815142Y-83384000D01*
X171862761Y-83431619D01*
X172243714Y-83431619D02*
X172291333Y-83384000D01*
X172386571Y-83336380D01*
X172624666Y-83336380D01*
X172719904Y-83384000D01*
X172767523Y-83431619D01*
X172815142Y-83526857D01*
X172815142Y-83622095D01*
X172767523Y-83764952D01*
X172196095Y-84336380D01*
X172815142Y-84336380D01*
X173719904Y-83336380D02*
X173243714Y-83336380D01*
X173196095Y-83812571D01*
X173243714Y-83764952D01*
X173338952Y-83717333D01*
X173577047Y-83717333D01*
X173672285Y-83764952D01*
X173719904Y-83812571D01*
X173767523Y-83907809D01*
X173767523Y-84145904D01*
X173719904Y-84241142D01*
X173672285Y-84288761D01*
X173577047Y-84336380D01*
X173338952Y-84336380D01*
X173243714Y-84288761D01*
X173196095Y-84241142D01*
X174624666Y-83336380D02*
X174434190Y-83336380D01*
X174338952Y-83384000D01*
X174291333Y-83431619D01*
X174196095Y-83574476D01*
X174148476Y-83764952D01*
X174148476Y-84145904D01*
X174196095Y-84241142D01*
X174243714Y-84288761D01*
X174338952Y-84336380D01*
X174529428Y-84336380D01*
X174624666Y-84288761D01*
X174672285Y-84241142D01*
X174719904Y-84145904D01*
X174719904Y-83907809D01*
X174672285Y-83812571D01*
X174624666Y-83764952D01*
X174529428Y-83717333D01*
X174338952Y-83717333D01*
X174243714Y-83764952D01*
X174196095Y-83812571D01*
X174148476Y-83907809D01*
X175481809Y-83812571D02*
X175624666Y-83860190D01*
X175672285Y-83907809D01*
X175719904Y-84003047D01*
X175719904Y-84145904D01*
X175672285Y-84241142D01*
X175624666Y-84288761D01*
X175529428Y-84336380D01*
X175148476Y-84336380D01*
X175148476Y-83336380D01*
X175481809Y-83336380D01*
X175577047Y-83384000D01*
X175624666Y-83431619D01*
X175672285Y-83526857D01*
X175672285Y-83622095D01*
X175624666Y-83717333D01*
X175577047Y-83764952D01*
X175481809Y-83812571D01*
X175148476Y-83812571D01*
X167267523Y-84986380D02*
X167886571Y-84986380D01*
X167553238Y-85367333D01*
X167696095Y-85367333D01*
X167791333Y-85414952D01*
X167838952Y-85462571D01*
X167886571Y-85557809D01*
X167886571Y-85795904D01*
X167838952Y-85891142D01*
X167791333Y-85938761D01*
X167696095Y-85986380D01*
X167410380Y-85986380D01*
X167315142Y-85938761D01*
X167267523Y-85891142D01*
X168267523Y-85081619D02*
X168315142Y-85034000D01*
X168410380Y-84986380D01*
X168648476Y-84986380D01*
X168743714Y-85034000D01*
X168791333Y-85081619D01*
X168838952Y-85176857D01*
X168838952Y-85272095D01*
X168791333Y-85414952D01*
X168219904Y-85986380D01*
X168838952Y-85986380D01*
X169267523Y-85986380D02*
X169267523Y-84986380D01*
X169838952Y-85986380D02*
X169410380Y-85414952D01*
X169838952Y-84986380D02*
X169267523Y-85557809D01*
X171029428Y-85462571D02*
X171362761Y-85462571D01*
X171505619Y-85986380D02*
X171029428Y-85986380D01*
X171029428Y-84986380D01*
X171505619Y-84986380D01*
X171934190Y-85462571D02*
X172267523Y-85462571D01*
X172410380Y-85986380D02*
X171934190Y-85986380D01*
X171934190Y-84986380D01*
X172410380Y-84986380D01*
X172838952Y-85986380D02*
X172838952Y-84986380D01*
X173219904Y-84986380D01*
X173315142Y-85034000D01*
X173362761Y-85081619D01*
X173410380Y-85176857D01*
X173410380Y-85319714D01*
X173362761Y-85414952D01*
X173315142Y-85462571D01*
X173219904Y-85510190D01*
X172838952Y-85510190D01*
X174410380Y-85986380D02*
X174077047Y-85510190D01*
X173838952Y-85986380D02*
X173838952Y-84986380D01*
X174219904Y-84986380D01*
X174315142Y-85034000D01*
X174362761Y-85081619D01*
X174410380Y-85176857D01*
X174410380Y-85319714D01*
X174362761Y-85414952D01*
X174315142Y-85462571D01*
X174219904Y-85510190D01*
X173838952Y-85510190D01*
X175029428Y-84986380D02*
X175219904Y-84986380D01*
X175315142Y-85034000D01*
X175410380Y-85129238D01*
X175458000Y-85319714D01*
X175458000Y-85653047D01*
X175410380Y-85843523D01*
X175315142Y-85938761D01*
X175219904Y-85986380D01*
X175029428Y-85986380D01*
X174934190Y-85938761D01*
X174838952Y-85843523D01*
X174791333Y-85653047D01*
X174791333Y-85319714D01*
X174838952Y-85129238D01*
X174934190Y-85034000D01*
X175029428Y-84986380D01*
X175886571Y-85986380D02*
X175886571Y-84986380D01*
X176219904Y-85700666D01*
X176553238Y-84986380D01*
X176553238Y-85986380D01*
X159909714Y-116625666D02*
X160385904Y-116625666D01*
X159814476Y-116911380D02*
X160147809Y-115911380D01*
X160481142Y-116911380D01*
X160814476Y-116911380D02*
X160814476Y-116244714D01*
X160814476Y-116435190D02*
X160862095Y-116339952D01*
X160909714Y-116292333D01*
X161004952Y-116244714D01*
X161100190Y-116244714D01*
X161862095Y-116911380D02*
X161862095Y-115911380D01*
X161862095Y-116863761D02*
X161766857Y-116911380D01*
X161576380Y-116911380D01*
X161481142Y-116863761D01*
X161433523Y-116816142D01*
X161385904Y-116720904D01*
X161385904Y-116435190D01*
X161433523Y-116339952D01*
X161481142Y-116292333D01*
X161576380Y-116244714D01*
X161766857Y-116244714D01*
X161862095Y-116292333D01*
X162766857Y-116244714D02*
X162766857Y-116911380D01*
X162338285Y-116244714D02*
X162338285Y-116768523D01*
X162385904Y-116863761D01*
X162481142Y-116911380D01*
X162624000Y-116911380D01*
X162719238Y-116863761D01*
X162766857Y-116816142D01*
X163243047Y-116911380D02*
X163243047Y-116244714D01*
X163243047Y-115911380D02*
X163195428Y-115959000D01*
X163243047Y-116006619D01*
X163290666Y-115959000D01*
X163243047Y-115911380D01*
X163243047Y-116006619D01*
X163719238Y-116244714D02*
X163719238Y-116911380D01*
X163719238Y-116339952D02*
X163766857Y-116292333D01*
X163862095Y-116244714D01*
X164004952Y-116244714D01*
X164100190Y-116292333D01*
X164147809Y-116387571D01*
X164147809Y-116911380D01*
X164766857Y-116911380D02*
X164671619Y-116863761D01*
X164624000Y-116816142D01*
X164576380Y-116720904D01*
X164576380Y-116435190D01*
X164624000Y-116339952D01*
X164671619Y-116292333D01*
X164766857Y-116244714D01*
X164909714Y-116244714D01*
X165004952Y-116292333D01*
X165052571Y-116339952D01*
X165100190Y-116435190D01*
X165100190Y-116720904D01*
X165052571Y-116816142D01*
X165004952Y-116863761D01*
X164909714Y-116911380D01*
X164766857Y-116911380D01*
X166719238Y-116244714D02*
X166719238Y-117054238D01*
X166671619Y-117149476D01*
X166624000Y-117197095D01*
X166528761Y-117244714D01*
X166385904Y-117244714D01*
X166290666Y-117197095D01*
X166719238Y-116863761D02*
X166624000Y-116911380D01*
X166433523Y-116911380D01*
X166338285Y-116863761D01*
X166290666Y-116816142D01*
X166243047Y-116720904D01*
X166243047Y-116435190D01*
X166290666Y-116339952D01*
X166338285Y-116292333D01*
X166433523Y-116244714D01*
X166624000Y-116244714D01*
X166719238Y-116292333D01*
X167338285Y-116911380D02*
X167243047Y-116863761D01*
X167195428Y-116816142D01*
X167147809Y-116720904D01*
X167147809Y-116435190D01*
X167195428Y-116339952D01*
X167243047Y-116292333D01*
X167338285Y-116244714D01*
X167481142Y-116244714D01*
X167576380Y-116292333D01*
X167624000Y-116339952D01*
X167671619Y-116435190D01*
X167671619Y-116720904D01*
X167624000Y-116816142D01*
X167576380Y-116863761D01*
X167481142Y-116911380D01*
X167338285Y-116911380D01*
X168481142Y-116863761D02*
X168385904Y-116911380D01*
X168195428Y-116911380D01*
X168100190Y-116863761D01*
X168052571Y-116768523D01*
X168052571Y-116387571D01*
X168100190Y-116292333D01*
X168195428Y-116244714D01*
X168385904Y-116244714D01*
X168481142Y-116292333D01*
X168528761Y-116387571D01*
X168528761Y-116482809D01*
X168052571Y-116578047D01*
X168909714Y-116863761D02*
X169004952Y-116911380D01*
X169195428Y-116911380D01*
X169290666Y-116863761D01*
X169338285Y-116768523D01*
X169338285Y-116720904D01*
X169290666Y-116625666D01*
X169195428Y-116578047D01*
X169052571Y-116578047D01*
X168957333Y-116530428D01*
X168909714Y-116435190D01*
X168909714Y-116387571D01*
X168957333Y-116292333D01*
X169052571Y-116244714D01*
X169195428Y-116244714D01*
X169290666Y-116292333D01*
X170528761Y-116911380D02*
X170528761Y-115911380D01*
X170957333Y-116911380D02*
X170957333Y-116387571D01*
X170909714Y-116292333D01*
X170814476Y-116244714D01*
X170671619Y-116244714D01*
X170576380Y-116292333D01*
X170528761Y-116339952D01*
X171814476Y-116863761D02*
X171719238Y-116911380D01*
X171528761Y-116911380D01*
X171433523Y-116863761D01*
X171385904Y-116768523D01*
X171385904Y-116387571D01*
X171433523Y-116292333D01*
X171528761Y-116244714D01*
X171719238Y-116244714D01*
X171814476Y-116292333D01*
X171862095Y-116387571D01*
X171862095Y-116482809D01*
X171385904Y-116578047D01*
X172290666Y-116911380D02*
X172290666Y-116244714D01*
X172290666Y-116435190D02*
X172338285Y-116339952D01*
X172385904Y-116292333D01*
X172481142Y-116244714D01*
X172576380Y-116244714D01*
X173290666Y-116863761D02*
X173195428Y-116911380D01*
X173004952Y-116911380D01*
X172909714Y-116863761D01*
X172862095Y-116768523D01*
X172862095Y-116387571D01*
X172909714Y-116292333D01*
X173004952Y-116244714D01*
X173195428Y-116244714D01*
X173290666Y-116292333D01*
X173338285Y-116387571D01*
X173338285Y-116482809D01*
X172862095Y-116578047D01*
X189357047Y-128087428D02*
X190118952Y-128087428D01*
X189357047Y-130627428D02*
X190118952Y-130627428D01*
X189738000Y-131008380D02*
X189738000Y-130246476D01*
X130325571Y-140330476D02*
X130230333Y-140282857D01*
X130039857Y-140282857D01*
X129944619Y-140330476D01*
X129849380Y-140425714D01*
X129801761Y-140520952D01*
X129801761Y-140711428D01*
X129849380Y-140806666D01*
X129944619Y-140901904D01*
X130039857Y-140949523D01*
X130230333Y-140949523D01*
X130325571Y-140901904D01*
X130135095Y-139949523D02*
X129896999Y-139997142D01*
X129658904Y-140140000D01*
X129516047Y-140378095D01*
X129468428Y-140616190D01*
X129516047Y-140854285D01*
X129658904Y-141092380D01*
X129896999Y-141235238D01*
X130135095Y-141282857D01*
X130373190Y-141235238D01*
X130611285Y-141092380D01*
X130754142Y-140854285D01*
X130801761Y-140616190D01*
X130754142Y-140378095D01*
X130611285Y-140140000D01*
X130373190Y-139997142D01*
X130135095Y-139949523D01*
X131944619Y-140187619D02*
X131992238Y-140140000D01*
X132087476Y-140092380D01*
X132325571Y-140092380D01*
X132420809Y-140140000D01*
X132468428Y-140187619D01*
X132516047Y-140282857D01*
X132516047Y-140378095D01*
X132468428Y-140520952D01*
X131896999Y-141092380D01*
X132516047Y-141092380D01*
X133135095Y-140092380D02*
X133230333Y-140092380D01*
X133325571Y-140140000D01*
X133373190Y-140187619D01*
X133420809Y-140282857D01*
X133468428Y-140473333D01*
X133468428Y-140711428D01*
X133420809Y-140901904D01*
X133373190Y-140997142D01*
X133325571Y-141044761D01*
X133230333Y-141092380D01*
X133135095Y-141092380D01*
X133039857Y-141044761D01*
X132992238Y-140997142D01*
X132944619Y-140901904D01*
X132896999Y-140711428D01*
X132896999Y-140473333D01*
X132944619Y-140282857D01*
X132992238Y-140187619D01*
X133039857Y-140140000D01*
X133135095Y-140092380D01*
X133849380Y-140187619D02*
X133896999Y-140140000D01*
X133992238Y-140092380D01*
X134230333Y-140092380D01*
X134325571Y-140140000D01*
X134373190Y-140187619D01*
X134420809Y-140282857D01*
X134420809Y-140378095D01*
X134373190Y-140520952D01*
X133801761Y-141092380D01*
X134420809Y-141092380D01*
X135039857Y-140092380D02*
X135135095Y-140092380D01*
X135230333Y-140140000D01*
X135277952Y-140187619D01*
X135325571Y-140282857D01*
X135373190Y-140473333D01*
X135373190Y-140711428D01*
X135325571Y-140901904D01*
X135277952Y-140997142D01*
X135230333Y-141044761D01*
X135135095Y-141092380D01*
X135039857Y-141092380D01*
X134944619Y-141044761D01*
X134897000Y-140997142D01*
X134849380Y-140901904D01*
X134801761Y-140711428D01*
X134801761Y-140473333D01*
X134849380Y-140282857D01*
X134897000Y-140187619D01*
X134944619Y-140140000D01*
X135039857Y-140092380D01*
X136897000Y-140568571D02*
X136563666Y-140568571D01*
X136563666Y-141092380D02*
X136563666Y-140092380D01*
X137039857Y-140092380D01*
X137420809Y-141092380D02*
X137420809Y-140425714D01*
X137420809Y-140616190D02*
X137468428Y-140520952D01*
X137516047Y-140473333D01*
X137611285Y-140425714D01*
X137706523Y-140425714D01*
X138420809Y-141044761D02*
X138325571Y-141092380D01*
X138135095Y-141092380D01*
X138039857Y-141044761D01*
X137992238Y-140949523D01*
X137992238Y-140568571D01*
X138039857Y-140473333D01*
X138135095Y-140425714D01*
X138325571Y-140425714D01*
X138420809Y-140473333D01*
X138468428Y-140568571D01*
X138468428Y-140663809D01*
X137992238Y-140759047D01*
X139325571Y-141092380D02*
X139325571Y-140092380D01*
X139325571Y-141044761D02*
X139230333Y-141092380D01*
X139039857Y-141092380D01*
X138944619Y-141044761D01*
X138897000Y-140997142D01*
X138849380Y-140901904D01*
X138849380Y-140616190D01*
X138897000Y-140520952D01*
X138944619Y-140473333D01*
X139039857Y-140425714D01*
X139230333Y-140425714D01*
X139325571Y-140473333D01*
X139801761Y-141092380D02*
X139801761Y-140425714D01*
X139801761Y-140616190D02*
X139849380Y-140520952D01*
X139897000Y-140473333D01*
X139992238Y-140425714D01*
X140087476Y-140425714D01*
X140420809Y-141092380D02*
X140420809Y-140425714D01*
X140420809Y-140092380D02*
X140373190Y-140140000D01*
X140420809Y-140187619D01*
X140468428Y-140140000D01*
X140420809Y-140092380D01*
X140420809Y-140187619D01*
X140897000Y-141092380D02*
X140897000Y-140092380D01*
X140992238Y-140711428D02*
X141277952Y-141092380D01*
X141277952Y-140425714D02*
X140897000Y-140806666D01*
X142420809Y-141044761D02*
X142563666Y-141092380D01*
X142801761Y-141092380D01*
X142897000Y-141044761D01*
X142944619Y-140997142D01*
X142992238Y-140901904D01*
X142992238Y-140806666D01*
X142944619Y-140711428D01*
X142897000Y-140663809D01*
X142801761Y-140616190D01*
X142611285Y-140568571D01*
X142516047Y-140520952D01*
X142468428Y-140473333D01*
X142420809Y-140378095D01*
X142420809Y-140282857D01*
X142468428Y-140187619D01*
X142516047Y-140140000D01*
X142611285Y-140092380D01*
X142849380Y-140092380D01*
X142992238Y-140140000D01*
X143420809Y-140473333D02*
X143516047Y-140425714D01*
X143706523Y-140425714D01*
X143801761Y-140473333D01*
X143849380Y-140568571D01*
X144277952Y-141044761D02*
X144182714Y-141092380D01*
X143992238Y-141092380D01*
X143897000Y-141044761D01*
X143849380Y-140949523D01*
X143849380Y-140568571D01*
X143897000Y-140473333D01*
X143992238Y-140425714D01*
X144182714Y-140425714D01*
X144277952Y-140473333D01*
X144325571Y-140568571D01*
X144325571Y-140663809D01*
X143849380Y-140711428D01*
X143516047Y-140711428D01*
X143420809Y-140759047D01*
X143373190Y-140854285D01*
X143373190Y-140949523D01*
X143420809Y-141044761D01*
X143516047Y-141092380D01*
X143706523Y-141092380D01*
X143801761Y-141044761D01*
X143849380Y-140949523D01*
X144658904Y-140425714D02*
X144897000Y-141092380D01*
X145135095Y-140425714D01*
X145658904Y-141092380D02*
X145563666Y-141044761D01*
X145516047Y-140949523D01*
X145516047Y-140092380D01*
X146468428Y-141092380D02*
X146468428Y-140568571D01*
X146420809Y-140473333D01*
X146325571Y-140425714D01*
X146135095Y-140425714D01*
X146039857Y-140473333D01*
X146468428Y-141044761D02*
X146373190Y-141092380D01*
X146135095Y-141092380D01*
X146039857Y-141044761D01*
X145992238Y-140949523D01*
X145992238Y-140854285D01*
X146039857Y-140759047D01*
X146135095Y-140711428D01*
X146373190Y-140711428D01*
X146468428Y-140663809D01*
X146944619Y-140425714D02*
X146944619Y-141092380D01*
X146944619Y-140520952D02*
X146992238Y-140473333D01*
X147087476Y-140425714D01*
X147230333Y-140425714D01*
X147325571Y-140473333D01*
X147373190Y-140568571D01*
X147373190Y-141092380D01*
X148277952Y-141092380D02*
X148277952Y-140092380D01*
X148277952Y-141044761D02*
X148182714Y-141092380D01*
X147992238Y-141092380D01*
X147897000Y-141044761D01*
X147849380Y-140997142D01*
X147801761Y-140901904D01*
X147801761Y-140616190D01*
X147849380Y-140520952D01*
X147897000Y-140473333D01*
X147992238Y-140425714D01*
X148182714Y-140425714D01*
X148277952Y-140473333D01*
X134811047Y-138445761D02*
X134811047Y-136445761D01*
X135287238Y-136445761D01*
X135572952Y-136541000D01*
X135763428Y-136731476D01*
X135858666Y-136921952D01*
X135953904Y-137302904D01*
X135953904Y-137588619D01*
X135858666Y-137969571D01*
X135763428Y-138160047D01*
X135572952Y-138350523D01*
X135287238Y-138445761D01*
X134811047Y-138445761D01*
X136811047Y-138445761D02*
X136811047Y-136445761D01*
X137572952Y-136445761D01*
X137763428Y-136541000D01*
X137858666Y-136636238D01*
X137953904Y-136826714D01*
X137953904Y-137112428D01*
X137858666Y-137302904D01*
X137763428Y-137398142D01*
X137572952Y-137493380D01*
X136811047Y-137493380D01*
X138620571Y-136445761D02*
X139953904Y-136445761D01*
X138620571Y-138445761D01*
X139953904Y-138445761D01*
X141001523Y-137302904D02*
X140811047Y-137207666D01*
X140715809Y-137112428D01*
X140620571Y-136921952D01*
X140620571Y-136826714D01*
X140715809Y-136636238D01*
X140811047Y-136541000D01*
X141001523Y-136445761D01*
X141382476Y-136445761D01*
X141572952Y-136541000D01*
X141668190Y-136636238D01*
X141763428Y-136826714D01*
X141763428Y-136921952D01*
X141668190Y-137112428D01*
X141572952Y-137207666D01*
X141382476Y-137302904D01*
X141001523Y-137302904D01*
X140811047Y-137398142D01*
X140715809Y-137493380D01*
X140620571Y-137683857D01*
X140620571Y-138064809D01*
X140715809Y-138255285D01*
X140811047Y-138350523D01*
X141001523Y-138445761D01*
X141382476Y-138445761D01*
X141572952Y-138350523D01*
X141668190Y-138255285D01*
X141763428Y-138064809D01*
X141763428Y-137683857D01*
X141668190Y-137493380D01*
X141572952Y-137398142D01*
X141382476Y-137302904D01*
X143001523Y-136445761D02*
X143192000Y-136445761D01*
X143382476Y-136541000D01*
X143477714Y-136636238D01*
X143572952Y-136826714D01*
X143668190Y-137207666D01*
X143668190Y-137683857D01*
X143572952Y-138064809D01*
X143477714Y-138255285D01*
X143382476Y-138350523D01*
X143192000Y-138445761D01*
X143001523Y-138445761D01*
X142811047Y-138350523D01*
X142715809Y-138255285D01*
X142620571Y-138064809D01*
X142525333Y-137683857D01*
X142525333Y-137207666D01*
X142620571Y-136826714D01*
X142715809Y-136636238D01*
X142811047Y-136541000D01*
X143001523Y-136445761D01*
D11*
G36*
X114507682Y-134259933D02*
G01*
X114643929Y-134307172D01*
X114770779Y-134381527D01*
X114884067Y-134482987D01*
X114979628Y-134611543D01*
X115022554Y-134692572D01*
X115059705Y-134805908D01*
X115077712Y-134936751D01*
X115075717Y-135071265D01*
X115053577Y-135193158D01*
X114993064Y-135342107D01*
X114905314Y-135471309D01*
X114794788Y-135578223D01*
X114665946Y-135660306D01*
X114523247Y-135715016D01*
X114371151Y-135739810D01*
X114214119Y-135732147D01*
X114136714Y-135715772D01*
X113985859Y-135657089D01*
X113851875Y-135567543D01*
X113737994Y-135449893D01*
X113647448Y-135306902D01*
X113639788Y-135291286D01*
X113613306Y-135232686D01*
X113596678Y-135183334D01*
X113587650Y-135131270D01*
X113583968Y-135064539D01*
X113583357Y-134991929D01*
X113584367Y-134904691D01*
X113588928Y-134841624D01*
X113599334Y-134790636D01*
X113617879Y-134739633D01*
X113640770Y-134689313D01*
X113726154Y-134546470D01*
X113831301Y-134430810D01*
X113952045Y-134342325D01*
X114084221Y-134281005D01*
X114223663Y-134246839D01*
X114366205Y-134239818D01*
X114507682Y-134259933D01*
G37*
X114507682Y-134259933D02*
X114643929Y-134307172D01*
X114770779Y-134381527D01*
X114884067Y-134482987D01*
X114979628Y-134611543D01*
X115022554Y-134692572D01*
X115059705Y-134805908D01*
X115077712Y-134936751D01*
X115075717Y-135071265D01*
X115053577Y-135193158D01*
X114993064Y-135342107D01*
X114905314Y-135471309D01*
X114794788Y-135578223D01*
X114665946Y-135660306D01*
X114523247Y-135715016D01*
X114371151Y-135739810D01*
X114214119Y-135732147D01*
X114136714Y-135715772D01*
X113985859Y-135657089D01*
X113851875Y-135567543D01*
X113737994Y-135449893D01*
X113647448Y-135306902D01*
X113639788Y-135291286D01*
X113613306Y-135232686D01*
X113596678Y-135183334D01*
X113587650Y-135131270D01*
X113583968Y-135064539D01*
X113583357Y-134991929D01*
X113584367Y-134904691D01*
X113588928Y-134841624D01*
X113599334Y-134790636D01*
X113617879Y-134739633D01*
X113640770Y-134689313D01*
X113726154Y-134546470D01*
X113831301Y-134430810D01*
X113952045Y-134342325D01*
X114084221Y-134281005D01*
X114223663Y-134246839D01*
X114366205Y-134239818D01*
X114507682Y-134259933D01*
G36*
X127151571Y-135476089D02*
G01*
X127305876Y-135476723D01*
X127358321Y-135477042D01*
X128079500Y-135481786D01*
X128088571Y-138248572D01*
X128089769Y-138623756D01*
X128090832Y-138964417D01*
X128091827Y-139272318D01*
X128092823Y-139549221D01*
X128093888Y-139796888D01*
X128095091Y-140017081D01*
X128096499Y-140211562D01*
X128098182Y-140382094D01*
X128100206Y-140530440D01*
X128102641Y-140658361D01*
X128105554Y-140767620D01*
X128109015Y-140859979D01*
X128113090Y-140937200D01*
X128117849Y-141001046D01*
X128123360Y-141053278D01*
X128129691Y-141095660D01*
X128136910Y-141129953D01*
X128145085Y-141157920D01*
X128154285Y-141181324D01*
X128164577Y-141201925D01*
X128176031Y-141221487D01*
X128188715Y-141241772D01*
X128202695Y-141264543D01*
X128205561Y-141269393D01*
X128253640Y-141351433D01*
X126863928Y-141341929D01*
X126854857Y-141189295D01*
X126849918Y-141116045D01*
X126844771Y-141073696D01*
X126837786Y-141056892D01*
X126827337Y-141060277D01*
X126818571Y-141069960D01*
X126780388Y-141105229D01*
X126718155Y-141150563D01*
X126640641Y-141200546D01*
X126556613Y-141249761D01*
X126474839Y-141292791D01*
X126412052Y-141321101D01*
X126264954Y-141367624D01*
X126096180Y-141400579D01*
X125918191Y-141418707D01*
X125743447Y-141420750D01*
X125584407Y-141405447D01*
X125581788Y-141405009D01*
X125364168Y-141350402D01*
X125160455Y-141263401D01*
X124972613Y-141145876D01*
X124802607Y-140999697D01*
X124652402Y-140826734D01*
X124523964Y-140628857D01*
X124419257Y-140407936D01*
X124362246Y-140244286D01*
X124324651Y-140107375D01*
X124296771Y-139974798D01*
X124277753Y-139838502D01*
X124266745Y-139690433D01*
X124262895Y-139522537D01*
X124264600Y-139385440D01*
X125603359Y-139385440D01*
X125609694Y-139615329D01*
X125629679Y-139813111D01*
X125663927Y-139980539D01*
X125713055Y-140119369D01*
X125777676Y-140231358D01*
X125858405Y-140318259D01*
X125951591Y-140379692D01*
X126000080Y-140402626D01*
X126042134Y-140416375D01*
X126089020Y-140422666D01*
X126152004Y-140423222D01*
X126219857Y-140420773D01*
X126353295Y-140409004D01*
X126458832Y-140385955D01*
X126492000Y-140374410D01*
X126567735Y-140340311D01*
X126647614Y-140297491D01*
X126682500Y-140276057D01*
X126773214Y-140216556D01*
X126773214Y-138330584D01*
X126673428Y-138270771D01*
X126534267Y-138203185D01*
X126392087Y-138163214D01*
X126252090Y-138150622D01*
X126119474Y-138165173D01*
X125999440Y-138206632D01*
X125897188Y-138274763D01*
X125864195Y-138307466D01*
X125784667Y-138414619D01*
X125720299Y-138544327D01*
X125670553Y-138698814D01*
X125634891Y-138880302D01*
X125612775Y-139091015D01*
X125603667Y-139333175D01*
X125603359Y-139385440D01*
X124264600Y-139385440D01*
X124265310Y-139328374D01*
X124280605Y-139029713D01*
X124311358Y-138760325D01*
X124358381Y-138516285D01*
X124422482Y-138293670D01*
X124504472Y-138088556D01*
X124533730Y-138027746D01*
X124651581Y-137829440D01*
X124793996Y-137653212D01*
X124957629Y-137501908D01*
X125139131Y-137378371D01*
X125335153Y-137285447D01*
X125452655Y-137247115D01*
X125568054Y-137224359D01*
X125706907Y-137210820D01*
X125857574Y-137206492D01*
X126008413Y-137211368D01*
X126147785Y-137225444D01*
X126259691Y-137247525D01*
X126392884Y-137290828D01*
X126521979Y-137346511D01*
X126634928Y-137408936D01*
X126695043Y-137451303D01*
X126736510Y-137482807D01*
X126765545Y-137501990D01*
X126772150Y-137504714D01*
X126774198Y-137487163D01*
X126776107Y-137436875D01*
X126777836Y-137357400D01*
X126779341Y-137252286D01*
X126780581Y-137125083D01*
X126781513Y-136979339D01*
X126782095Y-136818603D01*
X126782286Y-136654884D01*
X126782179Y-136445188D01*
X126781658Y-136268396D01*
X126780416Y-136121126D01*
X126778148Y-135999997D01*
X126774550Y-135901627D01*
X126769317Y-135822634D01*
X126762144Y-135759638D01*
X126752726Y-135709255D01*
X126740758Y-135668105D01*
X126725935Y-135632806D01*
X126707952Y-135599977D01*
X126686505Y-135566235D01*
X126683745Y-135562057D01*
X126656083Y-135518356D01*
X126639382Y-135488305D01*
X126637143Y-135481967D01*
X126654643Y-135479967D01*
X126704574Y-135478340D01*
X126783085Y-135477112D01*
X126886323Y-135476311D01*
X127010436Y-135475961D01*
X127151571Y-135476089D01*
G37*
X127151571Y-135476089D02*
X127305876Y-135476723D01*
X127358321Y-135477042D01*
X128079500Y-135481786D01*
X128088571Y-138248572D01*
X128089769Y-138623756D01*
X128090832Y-138964417D01*
X128091827Y-139272318D01*
X128092823Y-139549221D01*
X128093888Y-139796888D01*
X128095091Y-140017081D01*
X128096499Y-140211562D01*
X128098182Y-140382094D01*
X128100206Y-140530440D01*
X128102641Y-140658361D01*
X128105554Y-140767620D01*
X128109015Y-140859979D01*
X128113090Y-140937200D01*
X128117849Y-141001046D01*
X128123360Y-141053278D01*
X128129691Y-141095660D01*
X128136910Y-141129953D01*
X128145085Y-141157920D01*
X128154285Y-141181324D01*
X128164577Y-141201925D01*
X128176031Y-141221487D01*
X128188715Y-141241772D01*
X128202695Y-141264543D01*
X128205561Y-141269393D01*
X128253640Y-141351433D01*
X126863928Y-141341929D01*
X126854857Y-141189295D01*
X126849918Y-141116045D01*
X126844771Y-141073696D01*
X126837786Y-141056892D01*
X126827337Y-141060277D01*
X126818571Y-141069960D01*
X126780388Y-141105229D01*
X126718155Y-141150563D01*
X126640641Y-141200546D01*
X126556613Y-141249761D01*
X126474839Y-141292791D01*
X126412052Y-141321101D01*
X126264954Y-141367624D01*
X126096180Y-141400579D01*
X125918191Y-141418707D01*
X125743447Y-141420750D01*
X125584407Y-141405447D01*
X125581788Y-141405009D01*
X125364168Y-141350402D01*
X125160455Y-141263401D01*
X124972613Y-141145876D01*
X124802607Y-140999697D01*
X124652402Y-140826734D01*
X124523964Y-140628857D01*
X124419257Y-140407936D01*
X124362246Y-140244286D01*
X124324651Y-140107375D01*
X124296771Y-139974798D01*
X124277753Y-139838502D01*
X124266745Y-139690433D01*
X124262895Y-139522537D01*
X124264600Y-139385440D01*
X125603359Y-139385440D01*
X125609694Y-139615329D01*
X125629679Y-139813111D01*
X125663927Y-139980539D01*
X125713055Y-140119369D01*
X125777676Y-140231358D01*
X125858405Y-140318259D01*
X125951591Y-140379692D01*
X126000080Y-140402626D01*
X126042134Y-140416375D01*
X126089020Y-140422666D01*
X126152004Y-140423222D01*
X126219857Y-140420773D01*
X126353295Y-140409004D01*
X126458832Y-140385955D01*
X126492000Y-140374410D01*
X126567735Y-140340311D01*
X126647614Y-140297491D01*
X126682500Y-140276057D01*
X126773214Y-140216556D01*
X126773214Y-138330584D01*
X126673428Y-138270771D01*
X126534267Y-138203185D01*
X126392087Y-138163214D01*
X126252090Y-138150622D01*
X126119474Y-138165173D01*
X125999440Y-138206632D01*
X125897188Y-138274763D01*
X125864195Y-138307466D01*
X125784667Y-138414619D01*
X125720299Y-138544327D01*
X125670553Y-138698814D01*
X125634891Y-138880302D01*
X125612775Y-139091015D01*
X125603667Y-139333175D01*
X125603359Y-139385440D01*
X124264600Y-139385440D01*
X124265310Y-139328374D01*
X124280605Y-139029713D01*
X124311358Y-138760325D01*
X124358381Y-138516285D01*
X124422482Y-138293670D01*
X124504472Y-138088556D01*
X124533730Y-138027746D01*
X124651581Y-137829440D01*
X124793996Y-137653212D01*
X124957629Y-137501908D01*
X125139131Y-137378371D01*
X125335153Y-137285447D01*
X125452655Y-137247115D01*
X125568054Y-137224359D01*
X125706907Y-137210820D01*
X125857574Y-137206492D01*
X126008413Y-137211368D01*
X126147785Y-137225444D01*
X126259691Y-137247525D01*
X126392884Y-137290828D01*
X126521979Y-137346511D01*
X126634928Y-137408936D01*
X126695043Y-137451303D01*
X126736510Y-137482807D01*
X126765545Y-137501990D01*
X126772150Y-137504714D01*
X126774198Y-137487163D01*
X126776107Y-137436875D01*
X126777836Y-137357400D01*
X126779341Y-137252286D01*
X126780581Y-137125083D01*
X126781513Y-136979339D01*
X126782095Y-136818603D01*
X126782286Y-136654884D01*
X126782179Y-136445188D01*
X126781658Y-136268396D01*
X126780416Y-136121126D01*
X126778148Y-135999997D01*
X126774550Y-135901627D01*
X126769317Y-135822634D01*
X126762144Y-135759638D01*
X126752726Y-135709255D01*
X126740758Y-135668105D01*
X126725935Y-135632806D01*
X126707952Y-135599977D01*
X126686505Y-135566235D01*
X126683745Y-135562057D01*
X126656083Y-135518356D01*
X126639382Y-135488305D01*
X126637143Y-135481967D01*
X126654643Y-135479967D01*
X126704574Y-135478340D01*
X126783085Y-135477112D01*
X126886323Y-135476311D01*
X127010436Y-135475961D01*
X127151571Y-135476089D01*
G36*
X122295632Y-137203730D02*
G01*
X122385523Y-137210535D01*
X122642715Y-137244753D01*
X122870485Y-137299331D01*
X123069943Y-137375020D01*
X123242197Y-137472570D01*
X123388359Y-137592732D01*
X123509536Y-137736258D01*
X123606839Y-137903898D01*
X123677891Y-138085286D01*
X123695927Y-138143146D01*
X123711632Y-138197329D01*
X123725192Y-138250752D01*
X123736792Y-138306333D01*
X123746617Y-138366988D01*
X123754853Y-138435635D01*
X123761684Y-138515190D01*
X123767295Y-138608572D01*
X123771872Y-138718696D01*
X123775600Y-138848481D01*
X123778665Y-139000842D01*
X123781250Y-139178698D01*
X123783542Y-139384965D01*
X123785725Y-139622561D01*
X123787286Y-139808857D01*
X123797785Y-141087929D01*
X123865821Y-141211018D01*
X123898038Y-141270317D01*
X123922012Y-141316377D01*
X123933450Y-141340893D01*
X123933857Y-141342553D01*
X123916375Y-141344454D01*
X123866574Y-141346205D01*
X123788421Y-141347758D01*
X123685882Y-141349062D01*
X123562922Y-141350070D01*
X123423510Y-141350731D01*
X123271611Y-141350997D01*
X123253500Y-141351000D01*
X122573143Y-141351000D01*
X122573143Y-141196786D01*
X122571982Y-141127094D01*
X122568887Y-141073794D01*
X122564432Y-141045217D01*
X122562463Y-141042572D01*
X122544455Y-141053653D01*
X122507393Y-141082736D01*
X122459222Y-141123579D01*
X122458141Y-141124524D01*
X122370235Y-141189971D01*
X122259217Y-141255688D01*
X122137631Y-141315219D01*
X122018021Y-141362109D01*
X121965357Y-141378133D01*
X121860551Y-141398485D01*
X121731950Y-141411472D01*
X121591325Y-141416909D01*
X121450448Y-141414611D01*
X121321093Y-141404392D01*
X121230571Y-141389689D01*
X121008580Y-141324499D01*
X120808729Y-141231594D01*
X120632319Y-141112126D01*
X120480650Y-140967247D01*
X120355024Y-140798110D01*
X120256741Y-140605867D01*
X120214341Y-140489214D01*
X120187768Y-140375833D01*
X120170158Y-140239722D01*
X120162010Y-140093437D01*
X120162278Y-140072151D01*
X121389321Y-140072151D01*
X121399496Y-140180850D01*
X121433378Y-140271185D01*
X121496000Y-140354995D01*
X121520052Y-140379571D01*
X121605551Y-140446011D01*
X121704373Y-140488574D01*
X121822768Y-140509177D01*
X121947445Y-140510694D01*
X122065698Y-140500677D01*
X122156239Y-140481085D01*
X122195560Y-140466370D01*
X122266432Y-140426265D01*
X122341525Y-140369863D01*
X122410038Y-140306561D01*
X122461172Y-140245755D01*
X122474750Y-140223449D01*
X122485305Y-140192212D01*
X122492810Y-140142507D01*
X122497613Y-140069587D01*
X122500065Y-139968703D01*
X122500571Y-139872689D01*
X122500228Y-139760750D01*
X122498843Y-139679809D01*
X122495881Y-139624585D01*
X122490808Y-139589794D01*
X122483090Y-139570154D01*
X122472192Y-139560380D01*
X122468821Y-139558824D01*
X122439529Y-139554029D01*
X122381756Y-139550108D01*
X122303304Y-139547414D01*
X122211974Y-139546299D01*
X122192143Y-139546298D01*
X122070063Y-139548246D01*
X121975749Y-139554041D01*
X121900807Y-139564475D01*
X121838903Y-139579714D01*
X121685349Y-139637784D01*
X121564932Y-139709179D01*
X121476610Y-139795039D01*
X121419339Y-139896507D01*
X121392078Y-140014725D01*
X121389321Y-140072151D01*
X120162278Y-140072151D01*
X120163823Y-139949533D01*
X120176096Y-139820565D01*
X120185670Y-139768460D01*
X120246801Y-139574997D01*
X120339757Y-139396993D01*
X120462783Y-139236155D01*
X120614124Y-139094190D01*
X120792025Y-138972806D01*
X120994732Y-138873709D01*
X121167071Y-138813533D01*
X121282253Y-138781919D01*
X121392423Y-138757354D01*
X121504719Y-138739039D01*
X121626275Y-138726178D01*
X121764229Y-138717972D01*
X121925715Y-138713624D01*
X122071715Y-138712400D01*
X122504645Y-138711215D01*
X122496351Y-138581080D01*
X122472801Y-138439883D01*
X122422703Y-138318518D01*
X122348191Y-138220017D01*
X122251399Y-138147409D01*
X122166171Y-138111979D01*
X122044056Y-138089650D01*
X121898683Y-138086443D01*
X121736867Y-138101177D01*
X121565422Y-138132670D01*
X121391163Y-138179740D01*
X121220904Y-138241203D01*
X121097176Y-138297417D01*
X121037647Y-138326283D01*
X120992242Y-138346443D01*
X120969150Y-138354310D01*
X120967897Y-138354058D01*
X120959929Y-138336437D01*
X120940031Y-138289733D01*
X120910077Y-138218418D01*
X120871939Y-138126969D01*
X120827488Y-138019859D01*
X120782305Y-137910549D01*
X120601667Y-137472740D01*
X120730155Y-137451636D01*
X120785846Y-137441047D01*
X120869564Y-137423263D01*
X120974139Y-137399898D01*
X121092399Y-137372565D01*
X121217172Y-137342881D01*
X121266857Y-137330818D01*
X121481807Y-137280962D01*
X121669995Y-137243584D01*
X121838446Y-137217927D01*
X121994186Y-137203235D01*
X122144240Y-137198755D01*
X122295632Y-137203730D01*
G37*
X122295632Y-137203730D02*
X122385523Y-137210535D01*
X122642715Y-137244753D01*
X122870485Y-137299331D01*
X123069943Y-137375020D01*
X123242197Y-137472570D01*
X123388359Y-137592732D01*
X123509536Y-137736258D01*
X123606839Y-137903898D01*
X123677891Y-138085286D01*
X123695927Y-138143146D01*
X123711632Y-138197329D01*
X123725192Y-138250752D01*
X123736792Y-138306333D01*
X123746617Y-138366988D01*
X123754853Y-138435635D01*
X123761684Y-138515190D01*
X123767295Y-138608572D01*
X123771872Y-138718696D01*
X123775600Y-138848481D01*
X123778665Y-139000842D01*
X123781250Y-139178698D01*
X123783542Y-139384965D01*
X123785725Y-139622561D01*
X123787286Y-139808857D01*
X123797785Y-141087929D01*
X123865821Y-141211018D01*
X123898038Y-141270317D01*
X123922012Y-141316377D01*
X123933450Y-141340893D01*
X123933857Y-141342553D01*
X123916375Y-141344454D01*
X123866574Y-141346205D01*
X123788421Y-141347758D01*
X123685882Y-141349062D01*
X123562922Y-141350070D01*
X123423510Y-141350731D01*
X123271611Y-141350997D01*
X123253500Y-141351000D01*
X122573143Y-141351000D01*
X122573143Y-141196786D01*
X122571982Y-141127094D01*
X122568887Y-141073794D01*
X122564432Y-141045217D01*
X122562463Y-141042572D01*
X122544455Y-141053653D01*
X122507393Y-141082736D01*
X122459222Y-141123579D01*
X122458141Y-141124524D01*
X122370235Y-141189971D01*
X122259217Y-141255688D01*
X122137631Y-141315219D01*
X122018021Y-141362109D01*
X121965357Y-141378133D01*
X121860551Y-141398485D01*
X121731950Y-141411472D01*
X121591325Y-141416909D01*
X121450448Y-141414611D01*
X121321093Y-141404392D01*
X121230571Y-141389689D01*
X121008580Y-141324499D01*
X120808729Y-141231594D01*
X120632319Y-141112126D01*
X120480650Y-140967247D01*
X120355024Y-140798110D01*
X120256741Y-140605867D01*
X120214341Y-140489214D01*
X120187768Y-140375833D01*
X120170158Y-140239722D01*
X120162010Y-140093437D01*
X120162278Y-140072151D01*
X121389321Y-140072151D01*
X121399496Y-140180850D01*
X121433378Y-140271185D01*
X121496000Y-140354995D01*
X121520052Y-140379571D01*
X121605551Y-140446011D01*
X121704373Y-140488574D01*
X121822768Y-140509177D01*
X121947445Y-140510694D01*
X122065698Y-140500677D01*
X122156239Y-140481085D01*
X122195560Y-140466370D01*
X122266432Y-140426265D01*
X122341525Y-140369863D01*
X122410038Y-140306561D01*
X122461172Y-140245755D01*
X122474750Y-140223449D01*
X122485305Y-140192212D01*
X122492810Y-140142507D01*
X122497613Y-140069587D01*
X122500065Y-139968703D01*
X122500571Y-139872689D01*
X122500228Y-139760750D01*
X122498843Y-139679809D01*
X122495881Y-139624585D01*
X122490808Y-139589794D01*
X122483090Y-139570154D01*
X122472192Y-139560380D01*
X122468821Y-139558824D01*
X122439529Y-139554029D01*
X122381756Y-139550108D01*
X122303304Y-139547414D01*
X122211974Y-139546299D01*
X122192143Y-139546298D01*
X122070063Y-139548246D01*
X121975749Y-139554041D01*
X121900807Y-139564475D01*
X121838903Y-139579714D01*
X121685349Y-139637784D01*
X121564932Y-139709179D01*
X121476610Y-139795039D01*
X121419339Y-139896507D01*
X121392078Y-140014725D01*
X121389321Y-140072151D01*
X120162278Y-140072151D01*
X120163823Y-139949533D01*
X120176096Y-139820565D01*
X120185670Y-139768460D01*
X120246801Y-139574997D01*
X120339757Y-139396993D01*
X120462783Y-139236155D01*
X120614124Y-139094190D01*
X120792025Y-138972806D01*
X120994732Y-138873709D01*
X121167071Y-138813533D01*
X121282253Y-138781919D01*
X121392423Y-138757354D01*
X121504719Y-138739039D01*
X121626275Y-138726178D01*
X121764229Y-138717972D01*
X121925715Y-138713624D01*
X122071715Y-138712400D01*
X122504645Y-138711215D01*
X122496351Y-138581080D01*
X122472801Y-138439883D01*
X122422703Y-138318518D01*
X122348191Y-138220017D01*
X122251399Y-138147409D01*
X122166171Y-138111979D01*
X122044056Y-138089650D01*
X121898683Y-138086443D01*
X121736867Y-138101177D01*
X121565422Y-138132670D01*
X121391163Y-138179740D01*
X121220904Y-138241203D01*
X121097176Y-138297417D01*
X121037647Y-138326283D01*
X120992242Y-138346443D01*
X120969150Y-138354310D01*
X120967897Y-138354058D01*
X120959929Y-138336437D01*
X120940031Y-138289733D01*
X120910077Y-138218418D01*
X120871939Y-138126969D01*
X120827488Y-138019859D01*
X120782305Y-137910549D01*
X120601667Y-137472740D01*
X120730155Y-137451636D01*
X120785846Y-137441047D01*
X120869564Y-137423263D01*
X120974139Y-137399898D01*
X121092399Y-137372565D01*
X121217172Y-137342881D01*
X121266857Y-137330818D01*
X121481807Y-137280962D01*
X121669995Y-137243584D01*
X121838446Y-137217927D01*
X121994186Y-137203235D01*
X122144240Y-137198755D01*
X122295632Y-137203730D01*
G36*
X118691378Y-135745231D02*
G01*
X118887019Y-135766649D01*
X119076562Y-135804985D01*
X119267717Y-135862238D01*
X119468196Y-135940409D01*
X119685708Y-136041496D01*
X119724880Y-136061076D01*
X119814772Y-136105362D01*
X119899553Y-136145239D01*
X119970855Y-136176898D01*
X120020310Y-136196532D01*
X120027908Y-136199004D01*
X120100714Y-136220817D01*
X119774803Y-136694944D01*
X119695123Y-136810823D01*
X119622272Y-136916694D01*
X119558730Y-137008962D01*
X119506972Y-137084033D01*
X119469477Y-137138313D01*
X119448723Y-137168207D01*
X119445351Y-137172941D01*
X119431655Y-137163042D01*
X119397943Y-137133285D01*
X119350244Y-137089073D01*
X119323920Y-137064084D01*
X119174772Y-136945456D01*
X119007268Y-136855313D01*
X118862928Y-136805936D01*
X118776283Y-136790429D01*
X118667796Y-136780979D01*
X118550227Y-136777761D01*
X118436334Y-136780951D01*
X118338879Y-136790724D01*
X118299990Y-136798209D01*
X118124712Y-136858512D01*
X117966765Y-136950590D01*
X117826268Y-137074273D01*
X117703335Y-137229393D01*
X117598085Y-137415781D01*
X117510635Y-137633270D01*
X117441100Y-137881692D01*
X117399775Y-138094357D01*
X117388994Y-138188241D01*
X117381648Y-138309524D01*
X117377667Y-138449493D01*
X117376979Y-138599431D01*
X117379514Y-138750622D01*
X117385200Y-138894351D01*
X117393967Y-139021903D01*
X117405744Y-139124562D01*
X117408293Y-139140401D01*
X117464481Y-139395536D01*
X117541036Y-139621342D01*
X117638426Y-139818831D01*
X117757114Y-139989014D01*
X117841363Y-140081022D01*
X117992770Y-140205943D01*
X118158817Y-140298540D01*
X118336701Y-140358309D01*
X118523622Y-140384746D01*
X118716778Y-140377348D01*
X118913369Y-140335611D01*
X119029597Y-140294771D01*
X119190438Y-140212990D01*
X119356213Y-140095678D01*
X119449073Y-140016345D01*
X119501214Y-139970429D01*
X119542180Y-139936742D01*
X119565498Y-139920510D01*
X119568393Y-139920015D01*
X119578800Y-139936601D01*
X119605767Y-139980432D01*
X119646996Y-140047748D01*
X119700189Y-140134794D01*
X119763050Y-140237810D01*
X119833281Y-140353041D01*
X119872372Y-140417231D01*
X120170964Y-140907677D01*
X119798161Y-141091915D01*
X119663369Y-141158093D01*
X119554175Y-141210278D01*
X119463907Y-141251060D01*
X119385888Y-141283033D01*
X119313444Y-141308787D01*
X119239901Y-141330914D01*
X119158584Y-141352007D01*
X119080643Y-141370530D01*
X119011366Y-141384863D01*
X118938917Y-141395694D01*
X118856042Y-141403626D01*
X118755488Y-141409258D01*
X118630003Y-141413192D01*
X118545428Y-141414891D01*
X118424754Y-141416050D01*
X118309042Y-141415465D01*
X118205951Y-141413304D01*
X118123138Y-141409732D01*
X118068260Y-141404917D01*
X118065008Y-141404437D01*
X117780043Y-141342786D01*
X117512442Y-141249285D01*
X117262297Y-141123993D01*
X117029704Y-140966974D01*
X116814757Y-140778289D01*
X116617550Y-140558000D01*
X116474727Y-140362214D01*
X116322680Y-140105949D01*
X116199773Y-139835317D01*
X116105410Y-139548149D01*
X116038999Y-139242276D01*
X115999944Y-138915528D01*
X115987640Y-138583739D01*
X115997759Y-138262779D01*
X116029561Y-137966646D01*
X116084054Y-137690345D01*
X116162250Y-137428881D01*
X116265159Y-137177258D01*
X116277447Y-137151190D01*
X116412820Y-136907507D01*
X116579089Y-136675618D01*
X116771541Y-136460323D01*
X116985466Y-136266422D01*
X117216155Y-136098715D01*
X117431109Y-135975696D01*
X117648258Y-135879345D01*
X117865868Y-135809551D01*
X118092362Y-135764413D01*
X118336166Y-135742031D01*
X118481928Y-135738731D01*
X118691378Y-135745231D01*
G37*
X118691378Y-135745231D02*
X118887019Y-135766649D01*
X119076562Y-135804985D01*
X119267717Y-135862238D01*
X119468196Y-135940409D01*
X119685708Y-136041496D01*
X119724880Y-136061076D01*
X119814772Y-136105362D01*
X119899553Y-136145239D01*
X119970855Y-136176898D01*
X120020310Y-136196532D01*
X120027908Y-136199004D01*
X120100714Y-136220817D01*
X119774803Y-136694944D01*
X119695123Y-136810823D01*
X119622272Y-136916694D01*
X119558730Y-137008962D01*
X119506972Y-137084033D01*
X119469477Y-137138313D01*
X119448723Y-137168207D01*
X119445351Y-137172941D01*
X119431655Y-137163042D01*
X119397943Y-137133285D01*
X119350244Y-137089073D01*
X119323920Y-137064084D01*
X119174772Y-136945456D01*
X119007268Y-136855313D01*
X118862928Y-136805936D01*
X118776283Y-136790429D01*
X118667796Y-136780979D01*
X118550227Y-136777761D01*
X118436334Y-136780951D01*
X118338879Y-136790724D01*
X118299990Y-136798209D01*
X118124712Y-136858512D01*
X117966765Y-136950590D01*
X117826268Y-137074273D01*
X117703335Y-137229393D01*
X117598085Y-137415781D01*
X117510635Y-137633270D01*
X117441100Y-137881692D01*
X117399775Y-138094357D01*
X117388994Y-138188241D01*
X117381648Y-138309524D01*
X117377667Y-138449493D01*
X117376979Y-138599431D01*
X117379514Y-138750622D01*
X117385200Y-138894351D01*
X117393967Y-139021903D01*
X117405744Y-139124562D01*
X117408293Y-139140401D01*
X117464481Y-139395536D01*
X117541036Y-139621342D01*
X117638426Y-139818831D01*
X117757114Y-139989014D01*
X117841363Y-140081022D01*
X117992770Y-140205943D01*
X118158817Y-140298540D01*
X118336701Y-140358309D01*
X118523622Y-140384746D01*
X118716778Y-140377348D01*
X118913369Y-140335611D01*
X119029597Y-140294771D01*
X119190438Y-140212990D01*
X119356213Y-140095678D01*
X119449073Y-140016345D01*
X119501214Y-139970429D01*
X119542180Y-139936742D01*
X119565498Y-139920510D01*
X119568393Y-139920015D01*
X119578800Y-139936601D01*
X119605767Y-139980432D01*
X119646996Y-140047748D01*
X119700189Y-140134794D01*
X119763050Y-140237810D01*
X119833281Y-140353041D01*
X119872372Y-140417231D01*
X120170964Y-140907677D01*
X119798161Y-141091915D01*
X119663369Y-141158093D01*
X119554175Y-141210278D01*
X119463907Y-141251060D01*
X119385888Y-141283033D01*
X119313444Y-141308787D01*
X119239901Y-141330914D01*
X119158584Y-141352007D01*
X119080643Y-141370530D01*
X119011366Y-141384863D01*
X118938917Y-141395694D01*
X118856042Y-141403626D01*
X118755488Y-141409258D01*
X118630003Y-141413192D01*
X118545428Y-141414891D01*
X118424754Y-141416050D01*
X118309042Y-141415465D01*
X118205951Y-141413304D01*
X118123138Y-141409732D01*
X118068260Y-141404917D01*
X118065008Y-141404437D01*
X117780043Y-141342786D01*
X117512442Y-141249285D01*
X117262297Y-141123993D01*
X117029704Y-140966974D01*
X116814757Y-140778289D01*
X116617550Y-140558000D01*
X116474727Y-140362214D01*
X116322680Y-140105949D01*
X116199773Y-139835317D01*
X116105410Y-139548149D01*
X116038999Y-139242276D01*
X115999944Y-138915528D01*
X115987640Y-138583739D01*
X115997759Y-138262779D01*
X116029561Y-137966646D01*
X116084054Y-137690345D01*
X116162250Y-137428881D01*
X116265159Y-137177258D01*
X116277447Y-137151190D01*
X116412820Y-136907507D01*
X116579089Y-136675618D01*
X116771541Y-136460323D01*
X116985466Y-136266422D01*
X117216155Y-136098715D01*
X117431109Y-135975696D01*
X117648258Y-135879345D01*
X117865868Y-135809551D01*
X118092362Y-135764413D01*
X118336166Y-135742031D01*
X118481928Y-135738731D01*
X118691378Y-135745231D01*
G36*
X110239911Y-134837660D02*
G01*
X110589460Y-134837707D01*
X110752170Y-134837714D01*
X113356571Y-134837715D01*
X113356571Y-134991238D01*
X113372957Y-135178063D01*
X113422412Y-135350367D01*
X113505380Y-135509175D01*
X113622305Y-135655510D01*
X113661864Y-135695032D01*
X113804170Y-135807138D01*
X113961078Y-135888899D01*
X114127928Y-135940353D01*
X114300061Y-135961537D01*
X114472815Y-135952487D01*
X114641530Y-135913242D01*
X114801546Y-135843838D01*
X114948202Y-135744311D01*
X115014068Y-135684265D01*
X115136808Y-135537043D01*
X115226812Y-135375147D01*
X115283294Y-135200427D01*
X115305471Y-135014735D01*
X115305766Y-134996467D01*
X115306928Y-134837720D01*
X115376700Y-134837717D01*
X115438595Y-134846118D01*
X115495135Y-134866556D01*
X115498872Y-134868667D01*
X115511642Y-134875293D01*
X115523368Y-134880454D01*
X115534094Y-134885651D01*
X115543861Y-134892390D01*
X115552712Y-134902171D01*
X115560689Y-134916500D01*
X115567835Y-134936878D01*
X115574192Y-134964808D01*
X115579802Y-135001795D01*
X115584707Y-135049340D01*
X115588951Y-135108947D01*
X115592576Y-135182119D01*
X115595623Y-135270359D01*
X115598136Y-135375170D01*
X115600156Y-135498055D01*
X115601726Y-135640517D01*
X115602888Y-135804060D01*
X115603686Y-135990186D01*
X115604160Y-136200398D01*
X115604354Y-136436200D01*
X115604310Y-136699094D01*
X115604070Y-136990584D01*
X115603677Y-137312172D01*
X115603173Y-137665362D01*
X115602600Y-138051657D01*
X115602001Y-138472560D01*
X115601932Y-138523840D01*
X115601395Y-138947426D01*
X115600939Y-139336230D01*
X115600516Y-139691753D01*
X115600079Y-140015498D01*
X115599578Y-140308966D01*
X115598965Y-140573661D01*
X115598192Y-140811085D01*
X115597211Y-141022740D01*
X115595974Y-141210129D01*
X115594432Y-141374754D01*
X115592537Y-141518117D01*
X115590241Y-141641720D01*
X115587496Y-141747067D01*
X115584253Y-141835659D01*
X115580464Y-141909000D01*
X115576081Y-141968590D01*
X115571055Y-142015933D01*
X115565339Y-142052531D01*
X115558884Y-142079886D01*
X115551641Y-142099502D01*
X115543563Y-142112879D01*
X115534602Y-142121521D01*
X115524708Y-142126930D01*
X115513835Y-142130608D01*
X115501933Y-142134058D01*
X115488954Y-142138782D01*
X115485783Y-142140220D01*
X115475819Y-142143451D01*
X115459141Y-142146420D01*
X115434293Y-142149137D01*
X115399820Y-142151613D01*
X115354264Y-142153858D01*
X115296170Y-142155883D01*
X115224081Y-142157698D01*
X115136542Y-142159315D01*
X115032095Y-142160743D01*
X114909285Y-142161993D01*
X114766655Y-142163076D01*
X114602749Y-142164002D01*
X114416110Y-142164782D01*
X114205284Y-142165426D01*
X113968812Y-142165946D01*
X113705239Y-142166351D01*
X113413110Y-142166652D01*
X113090966Y-142166860D01*
X112737353Y-142166985D01*
X112350814Y-142167038D01*
X111929892Y-142167029D01*
X111793544Y-142167016D01*
X111363284Y-142166947D01*
X110967836Y-142166834D01*
X110605727Y-142166665D01*
X110275483Y-142166430D01*
X109975629Y-142166116D01*
X109704692Y-142165713D01*
X109461200Y-142165207D01*
X109243677Y-142164589D01*
X109050650Y-142163846D01*
X108880646Y-142162968D01*
X108732190Y-142161941D01*
X108603810Y-142160756D01*
X108494031Y-142159400D01*
X108401380Y-142157862D01*
X108324383Y-142156130D01*
X108261566Y-142154194D01*
X108211456Y-142152040D01*
X108172579Y-142149659D01*
X108143462Y-142147037D01*
X108122629Y-142144165D01*
X108108609Y-142141030D01*
X108100966Y-142138159D01*
X108087382Y-142132430D01*
X108074910Y-142128206D01*
X108063502Y-142123985D01*
X108053111Y-142118268D01*
X108043691Y-142109555D01*
X108035192Y-142096345D01*
X108027570Y-142077137D01*
X108020775Y-142050433D01*
X108014762Y-142014730D01*
X108009483Y-141968530D01*
X108004890Y-141910332D01*
X108000936Y-141838635D01*
X107997575Y-141751940D01*
X107994759Y-141648746D01*
X107992440Y-141527553D01*
X107990572Y-141386860D01*
X107990084Y-141332857D01*
X108474296Y-141332857D01*
X110185744Y-141332857D01*
X110152813Y-141282964D01*
X110120053Y-141231693D01*
X110092311Y-141182869D01*
X110069193Y-141133076D01*
X110050303Y-141078898D01*
X110035249Y-141016916D01*
X110023633Y-140943715D01*
X110015064Y-140855878D01*
X110009144Y-140749988D01*
X110005481Y-140622628D01*
X110003679Y-140470381D01*
X110003344Y-140289832D01*
X110004081Y-140077562D01*
X110004499Y-139998755D01*
X110009214Y-139153911D01*
X110544428Y-139882557D01*
X110696054Y-140089265D01*
X110827419Y-140269260D01*
X110939943Y-140424925D01*
X111035043Y-140558647D01*
X111114138Y-140672809D01*
X111178647Y-140769797D01*
X111229988Y-140851994D01*
X111269580Y-140921786D01*
X111298840Y-140981558D01*
X111319188Y-141033693D01*
X111332042Y-141080576D01*
X111338819Y-141124593D01*
X111340940Y-141168127D01*
X111339821Y-141213564D01*
X111339536Y-141219275D01*
X111333643Y-141332933D01*
X113209229Y-141332857D01*
X113069722Y-141192189D01*
X113031865Y-141153715D01*
X112995953Y-141116279D01*
X112960407Y-141077814D01*
X112923653Y-141036258D01*
X112884114Y-140989545D01*
X112840214Y-140935610D01*
X112790377Y-140872390D01*
X112733028Y-140797818D01*
X112666589Y-140709832D01*
X112589485Y-140606365D01*
X112500139Y-140485354D01*
X112396976Y-140344734D01*
X112278420Y-140182440D01*
X112142895Y-139996407D01*
X111988823Y-139784571D01*
X111862538Y-139610804D01*
X111704046Y-139392501D01*
X111565784Y-139201629D01*
X111446501Y-139036374D01*
X111344943Y-138894926D01*
X111259859Y-138775471D01*
X111189995Y-138676198D01*
X111134100Y-138595295D01*
X111090920Y-138530949D01*
X111059203Y-138481347D01*
X111037698Y-138444679D01*
X111025150Y-138419132D01*
X111020308Y-138402893D01*
X111021763Y-138394355D01*
X111039401Y-138371635D01*
X111077534Y-138323543D01*
X111133862Y-138252938D01*
X111206084Y-138162678D01*
X111291899Y-138055621D01*
X111389006Y-137934627D01*
X111495104Y-137802554D01*
X111607891Y-137662260D01*
X111725068Y-137516603D01*
X111844333Y-137368444D01*
X111909933Y-137287000D01*
X113538686Y-137287000D01*
X113606379Y-137409465D01*
X113674071Y-137531929D01*
X113674071Y-141087929D01*
X113606379Y-141210393D01*
X113538686Y-141332857D01*
X114339441Y-141332857D01*
X114530602Y-141332802D01*
X114688499Y-141332551D01*
X114816152Y-141331979D01*
X114916581Y-141330959D01*
X114992807Y-141329365D01*
X115047852Y-141327070D01*
X115084736Y-141323950D01*
X115106479Y-141319877D01*
X115116102Y-141314725D01*
X115116627Y-141308367D01*
X115111074Y-141300679D01*
X115111016Y-141300615D01*
X115088140Y-141267524D01*
X115057849Y-141213719D01*
X115031097Y-141160008D01*
X114980357Y-141051643D01*
X114975182Y-139169322D01*
X114970007Y-137287000D01*
X113538686Y-137287000D01*
X111909933Y-137287000D01*
X111963385Y-137220639D01*
X112079923Y-137076047D01*
X112191646Y-136937528D01*
X112296254Y-136807939D01*
X112391444Y-136690140D01*
X112474917Y-136586988D01*
X112544371Y-136501343D01*
X112597506Y-136436062D01*
X112628715Y-136398000D01*
X112749903Y-136255670D01*
X112866493Y-136127230D01*
X112974397Y-136016886D01*
X113069530Y-135928841D01*
X113137043Y-135874862D01*
X113216873Y-135817429D01*
X111380892Y-135817429D01*
X111381408Y-135925165D01*
X111376276Y-136004372D01*
X111356985Y-136077805D01*
X111327123Y-136147415D01*
X111307712Y-136186741D01*
X111286841Y-136225707D01*
X111262604Y-136266901D01*
X111233094Y-136312908D01*
X111196406Y-136366317D01*
X111150632Y-136429714D01*
X111093865Y-136505685D01*
X111024200Y-136596817D01*
X110939730Y-136705698D01*
X110838547Y-136834914D01*
X110718747Y-136987052D01*
X110578421Y-137164698D01*
X110562571Y-137184742D01*
X110009214Y-137884508D01*
X110003857Y-137109504D01*
X110002779Y-136877368D01*
X110003008Y-136680846D01*
X110004557Y-136519292D01*
X110007437Y-136392056D01*
X110011659Y-136298492D01*
X110017234Y-136237952D01*
X110019107Y-136226468D01*
X110048505Y-136105499D01*
X110087022Y-135996446D01*
X110130974Y-135908763D01*
X110157379Y-135871574D01*
X110202940Y-135817429D01*
X109338470Y-135817429D01*
X109132255Y-135817605D01*
X108959812Y-135818179D01*
X108818627Y-135819217D01*
X108706188Y-135820787D01*
X108619983Y-135822954D01*
X108557498Y-135825788D01*
X108516221Y-135829353D01*
X108493640Y-135833718D01*
X108487241Y-135838949D01*
X108487683Y-135840107D01*
X108506009Y-135867769D01*
X108536604Y-135911615D01*
X108552433Y-135933791D01*
X108568798Y-135955920D01*
X108583508Y-135975709D01*
X108596656Y-135995106D01*
X108608333Y-136016058D01*
X108618632Y-136040512D01*
X108627646Y-136070416D01*
X108635468Y-136107717D01*
X108642191Y-136154363D01*
X108647906Y-136212301D01*
X108652707Y-136283479D01*
X108656685Y-136369844D01*
X108659935Y-136473344D01*
X108662548Y-136595925D01*
X108664617Y-136739537D01*
X108666234Y-136906125D01*
X108667493Y-137097637D01*
X108668485Y-137316022D01*
X108669304Y-137563226D01*
X108670042Y-137841196D01*
X108670791Y-138151881D01*
X108671492Y-138437300D01*
X108672153Y-138755492D01*
X108672497Y-139059077D01*
X108672532Y-139346115D01*
X108672268Y-139614669D01*
X108671715Y-139862798D01*
X108670880Y-140088563D01*
X108669773Y-140290026D01*
X108668404Y-140465246D01*
X108666781Y-140612286D01*
X108664913Y-140729206D01*
X108662811Y-140814067D01*
X108660482Y-140864929D01*
X108660041Y-140870304D01*
X108643992Y-140993613D01*
X108618936Y-141092644D01*
X108580779Y-141179070D01*
X108525428Y-141264565D01*
X108518504Y-141273893D01*
X108474296Y-141332857D01*
X107990084Y-141332857D01*
X107989108Y-141225168D01*
X107987999Y-141040976D01*
X107987199Y-140832784D01*
X107986661Y-140599091D01*
X107986338Y-140338398D01*
X107986183Y-140049204D01*
X107986146Y-139730009D01*
X107986183Y-139379313D01*
X107986245Y-138995614D01*
X107986285Y-138577414D01*
X107986286Y-138494393D01*
X107986309Y-138071789D01*
X107986388Y-137683981D01*
X107986533Y-137329480D01*
X107986756Y-137006797D01*
X107987069Y-136714442D01*
X107987483Y-136450927D01*
X107988009Y-136214762D01*
X107988660Y-136004458D01*
X107989447Y-135818526D01*
X107990381Y-135655475D01*
X107991474Y-135513818D01*
X107992737Y-135392064D01*
X107994183Y-135288725D01*
X107995821Y-135202311D01*
X107997666Y-135131333D01*
X107999726Y-135074301D01*
X108002015Y-135029727D01*
X108004544Y-134996121D01*
X108007324Y-134971993D01*
X108010367Y-134955856D01*
X108013684Y-134946218D01*
X108013807Y-134945978D01*
X108020640Y-134931255D01*
X108026330Y-134917926D01*
X108032626Y-134905922D01*
X108041272Y-134895173D01*
X108054014Y-134885611D01*
X108072600Y-134877167D01*
X108098774Y-134869771D01*
X108134284Y-134863354D01*
X108180875Y-134857848D01*
X108240293Y-134853183D01*
X108314285Y-134849291D01*
X108404597Y-134846102D01*
X108512975Y-134843547D01*
X108641165Y-134841558D01*
X108790913Y-134840065D01*
X108963966Y-134838998D01*
X109162069Y-134838291D01*
X109386969Y-134837872D01*
X109640412Y-134837673D01*
X109924144Y-134837626D01*
X110239911Y-134837660D01*
G37*
X110239911Y-134837660D02*
X110589460Y-134837707D01*
X110752170Y-134837714D01*
X113356571Y-134837715D01*
X113356571Y-134991238D01*
X113372957Y-135178063D01*
X113422412Y-135350367D01*
X113505380Y-135509175D01*
X113622305Y-135655510D01*
X113661864Y-135695032D01*
X113804170Y-135807138D01*
X113961078Y-135888899D01*
X114127928Y-135940353D01*
X114300061Y-135961537D01*
X114472815Y-135952487D01*
X114641530Y-135913242D01*
X114801546Y-135843838D01*
X114948202Y-135744311D01*
X115014068Y-135684265D01*
X115136808Y-135537043D01*
X115226812Y-135375147D01*
X115283294Y-135200427D01*
X115305471Y-135014735D01*
X115305766Y-134996467D01*
X115306928Y-134837720D01*
X115376700Y-134837717D01*
X115438595Y-134846118D01*
X115495135Y-134866556D01*
X115498872Y-134868667D01*
X115511642Y-134875293D01*
X115523368Y-134880454D01*
X115534094Y-134885651D01*
X115543861Y-134892390D01*
X115552712Y-134902171D01*
X115560689Y-134916500D01*
X115567835Y-134936878D01*
X115574192Y-134964808D01*
X115579802Y-135001795D01*
X115584707Y-135049340D01*
X115588951Y-135108947D01*
X115592576Y-135182119D01*
X115595623Y-135270359D01*
X115598136Y-135375170D01*
X115600156Y-135498055D01*
X115601726Y-135640517D01*
X115602888Y-135804060D01*
X115603686Y-135990186D01*
X115604160Y-136200398D01*
X115604354Y-136436200D01*
X115604310Y-136699094D01*
X115604070Y-136990584D01*
X115603677Y-137312172D01*
X115603173Y-137665362D01*
X115602600Y-138051657D01*
X115602001Y-138472560D01*
X115601932Y-138523840D01*
X115601395Y-138947426D01*
X115600939Y-139336230D01*
X115600516Y-139691753D01*
X115600079Y-140015498D01*
X115599578Y-140308966D01*
X115598965Y-140573661D01*
X115598192Y-140811085D01*
X115597211Y-141022740D01*
X115595974Y-141210129D01*
X115594432Y-141374754D01*
X115592537Y-141518117D01*
X115590241Y-141641720D01*
X115587496Y-141747067D01*
X115584253Y-141835659D01*
X115580464Y-141909000D01*
X115576081Y-141968590D01*
X115571055Y-142015933D01*
X115565339Y-142052531D01*
X115558884Y-142079886D01*
X115551641Y-142099502D01*
X115543563Y-142112879D01*
X115534602Y-142121521D01*
X115524708Y-142126930D01*
X115513835Y-142130608D01*
X115501933Y-142134058D01*
X115488954Y-142138782D01*
X115485783Y-142140220D01*
X115475819Y-142143451D01*
X115459141Y-142146420D01*
X115434293Y-142149137D01*
X115399820Y-142151613D01*
X115354264Y-142153858D01*
X115296170Y-142155883D01*
X115224081Y-142157698D01*
X115136542Y-142159315D01*
X115032095Y-142160743D01*
X114909285Y-142161993D01*
X114766655Y-142163076D01*
X114602749Y-142164002D01*
X114416110Y-142164782D01*
X114205284Y-142165426D01*
X113968812Y-142165946D01*
X113705239Y-142166351D01*
X113413110Y-142166652D01*
X113090966Y-142166860D01*
X112737353Y-142166985D01*
X112350814Y-142167038D01*
X111929892Y-142167029D01*
X111793544Y-142167016D01*
X111363284Y-142166947D01*
X110967836Y-142166834D01*
X110605727Y-142166665D01*
X110275483Y-142166430D01*
X109975629Y-142166116D01*
X109704692Y-142165713D01*
X109461200Y-142165207D01*
X109243677Y-142164589D01*
X109050650Y-142163846D01*
X108880646Y-142162968D01*
X108732190Y-142161941D01*
X108603810Y-142160756D01*
X108494031Y-142159400D01*
X108401380Y-142157862D01*
X108324383Y-142156130D01*
X108261566Y-142154194D01*
X108211456Y-142152040D01*
X108172579Y-142149659D01*
X108143462Y-142147037D01*
X108122629Y-142144165D01*
X108108609Y-142141030D01*
X108100966Y-142138159D01*
X108087382Y-142132430D01*
X108074910Y-142128206D01*
X108063502Y-142123985D01*
X108053111Y-142118268D01*
X108043691Y-142109555D01*
X108035192Y-142096345D01*
X108027570Y-142077137D01*
X108020775Y-142050433D01*
X108014762Y-142014730D01*
X108009483Y-141968530D01*
X108004890Y-141910332D01*
X108000936Y-141838635D01*
X107997575Y-141751940D01*
X107994759Y-141648746D01*
X107992440Y-141527553D01*
X107990572Y-141386860D01*
X107990084Y-141332857D01*
X108474296Y-141332857D01*
X110185744Y-141332857D01*
X110152813Y-141282964D01*
X110120053Y-141231693D01*
X110092311Y-141182869D01*
X110069193Y-141133076D01*
X110050303Y-141078898D01*
X110035249Y-141016916D01*
X110023633Y-140943715D01*
X110015064Y-140855878D01*
X110009144Y-140749988D01*
X110005481Y-140622628D01*
X110003679Y-140470381D01*
X110003344Y-140289832D01*
X110004081Y-140077562D01*
X110004499Y-139998755D01*
X110009214Y-139153911D01*
X110544428Y-139882557D01*
X110696054Y-140089265D01*
X110827419Y-140269260D01*
X110939943Y-140424925D01*
X111035043Y-140558647D01*
X111114138Y-140672809D01*
X111178647Y-140769797D01*
X111229988Y-140851994D01*
X111269580Y-140921786D01*
X111298840Y-140981558D01*
X111319188Y-141033693D01*
X111332042Y-141080576D01*
X111338819Y-141124593D01*
X111340940Y-141168127D01*
X111339821Y-141213564D01*
X111339536Y-141219275D01*
X111333643Y-141332933D01*
X113209229Y-141332857D01*
X113069722Y-141192189D01*
X113031865Y-141153715D01*
X112995953Y-141116279D01*
X112960407Y-141077814D01*
X112923653Y-141036258D01*
X112884114Y-140989545D01*
X112840214Y-140935610D01*
X112790377Y-140872390D01*
X112733028Y-140797818D01*
X112666589Y-140709832D01*
X112589485Y-140606365D01*
X112500139Y-140485354D01*
X112396976Y-140344734D01*
X112278420Y-140182440D01*
X112142895Y-139996407D01*
X111988823Y-139784571D01*
X111862538Y-139610804D01*
X111704046Y-139392501D01*
X111565784Y-139201629D01*
X111446501Y-139036374D01*
X111344943Y-138894926D01*
X111259859Y-138775471D01*
X111189995Y-138676198D01*
X111134100Y-138595295D01*
X111090920Y-138530949D01*
X111059203Y-138481347D01*
X111037698Y-138444679D01*
X111025150Y-138419132D01*
X111020308Y-138402893D01*
X111021763Y-138394355D01*
X111039401Y-138371635D01*
X111077534Y-138323543D01*
X111133862Y-138252938D01*
X111206084Y-138162678D01*
X111291899Y-138055621D01*
X111389006Y-137934627D01*
X111495104Y-137802554D01*
X111607891Y-137662260D01*
X111725068Y-137516603D01*
X111844333Y-137368444D01*
X111909933Y-137287000D01*
X113538686Y-137287000D01*
X113606379Y-137409465D01*
X113674071Y-137531929D01*
X113674071Y-141087929D01*
X113606379Y-141210393D01*
X113538686Y-141332857D01*
X114339441Y-141332857D01*
X114530602Y-141332802D01*
X114688499Y-141332551D01*
X114816152Y-141331979D01*
X114916581Y-141330959D01*
X114992807Y-141329365D01*
X115047852Y-141327070D01*
X115084736Y-141323950D01*
X115106479Y-141319877D01*
X115116102Y-141314725D01*
X115116627Y-141308367D01*
X115111074Y-141300679D01*
X115111016Y-141300615D01*
X115088140Y-141267524D01*
X115057849Y-141213719D01*
X115031097Y-141160008D01*
X114980357Y-141051643D01*
X114975182Y-139169322D01*
X114970007Y-137287000D01*
X113538686Y-137287000D01*
X111909933Y-137287000D01*
X111963385Y-137220639D01*
X112079923Y-137076047D01*
X112191646Y-136937528D01*
X112296254Y-136807939D01*
X112391444Y-136690140D01*
X112474917Y-136586988D01*
X112544371Y-136501343D01*
X112597506Y-136436062D01*
X112628715Y-136398000D01*
X112749903Y-136255670D01*
X112866493Y-136127230D01*
X112974397Y-136016886D01*
X113069530Y-135928841D01*
X113137043Y-135874862D01*
X113216873Y-135817429D01*
X111380892Y-135817429D01*
X111381408Y-135925165D01*
X111376276Y-136004372D01*
X111356985Y-136077805D01*
X111327123Y-136147415D01*
X111307712Y-136186741D01*
X111286841Y-136225707D01*
X111262604Y-136266901D01*
X111233094Y-136312908D01*
X111196406Y-136366317D01*
X111150632Y-136429714D01*
X111093865Y-136505685D01*
X111024200Y-136596817D01*
X110939730Y-136705698D01*
X110838547Y-136834914D01*
X110718747Y-136987052D01*
X110578421Y-137164698D01*
X110562571Y-137184742D01*
X110009214Y-137884508D01*
X110003857Y-137109504D01*
X110002779Y-136877368D01*
X110003008Y-136680846D01*
X110004557Y-136519292D01*
X110007437Y-136392056D01*
X110011659Y-136298492D01*
X110017234Y-136237952D01*
X110019107Y-136226468D01*
X110048505Y-136105499D01*
X110087022Y-135996446D01*
X110130974Y-135908763D01*
X110157379Y-135871574D01*
X110202940Y-135817429D01*
X109338470Y-135817429D01*
X109132255Y-135817605D01*
X108959812Y-135818179D01*
X108818627Y-135819217D01*
X108706188Y-135820787D01*
X108619983Y-135822954D01*
X108557498Y-135825788D01*
X108516221Y-135829353D01*
X108493640Y-135833718D01*
X108487241Y-135838949D01*
X108487683Y-135840107D01*
X108506009Y-135867769D01*
X108536604Y-135911615D01*
X108552433Y-135933791D01*
X108568798Y-135955920D01*
X108583508Y-135975709D01*
X108596656Y-135995106D01*
X108608333Y-136016058D01*
X108618632Y-136040512D01*
X108627646Y-136070416D01*
X108635468Y-136107717D01*
X108642191Y-136154363D01*
X108647906Y-136212301D01*
X108652707Y-136283479D01*
X108656685Y-136369844D01*
X108659935Y-136473344D01*
X108662548Y-136595925D01*
X108664617Y-136739537D01*
X108666234Y-136906125D01*
X108667493Y-137097637D01*
X108668485Y-137316022D01*
X108669304Y-137563226D01*
X108670042Y-137841196D01*
X108670791Y-138151881D01*
X108671492Y-138437300D01*
X108672153Y-138755492D01*
X108672497Y-139059077D01*
X108672532Y-139346115D01*
X108672268Y-139614669D01*
X108671715Y-139862798D01*
X108670880Y-140088563D01*
X108669773Y-140290026D01*
X108668404Y-140465246D01*
X108666781Y-140612286D01*
X108664913Y-140729206D01*
X108662811Y-140814067D01*
X108660482Y-140864929D01*
X108660041Y-140870304D01*
X108643992Y-140993613D01*
X108618936Y-141092644D01*
X108580779Y-141179070D01*
X108525428Y-141264565D01*
X108518504Y-141273893D01*
X108474296Y-141332857D01*
X107990084Y-141332857D01*
X107989108Y-141225168D01*
X107987999Y-141040976D01*
X107987199Y-140832784D01*
X107986661Y-140599091D01*
X107986338Y-140338398D01*
X107986183Y-140049204D01*
X107986146Y-139730009D01*
X107986183Y-139379313D01*
X107986245Y-138995614D01*
X107986285Y-138577414D01*
X107986286Y-138494393D01*
X107986309Y-138071789D01*
X107986388Y-137683981D01*
X107986533Y-137329480D01*
X107986756Y-137006797D01*
X107987069Y-136714442D01*
X107987483Y-136450927D01*
X107988009Y-136214762D01*
X107988660Y-136004458D01*
X107989447Y-135818526D01*
X107990381Y-135655475D01*
X107991474Y-135513818D01*
X107992737Y-135392064D01*
X107994183Y-135288725D01*
X107995821Y-135202311D01*
X107997666Y-135131333D01*
X107999726Y-135074301D01*
X108002015Y-135029727D01*
X108004544Y-134996121D01*
X108007324Y-134971993D01*
X108010367Y-134955856D01*
X108013684Y-134946218D01*
X108013807Y-134945978D01*
X108020640Y-134931255D01*
X108026330Y-134917926D01*
X108032626Y-134905922D01*
X108041272Y-134895173D01*
X108054014Y-134885611D01*
X108072600Y-134877167D01*
X108098774Y-134869771D01*
X108134284Y-134863354D01*
X108180875Y-134857848D01*
X108240293Y-134853183D01*
X108314285Y-134849291D01*
X108404597Y-134846102D01*
X108512975Y-134843547D01*
X108641165Y-134841558D01*
X108790913Y-134840065D01*
X108963966Y-134838998D01*
X109162069Y-134838291D01*
X109386969Y-134837872D01*
X109640412Y-134837673D01*
X109924144Y-134837626D01*
X110239911Y-134837660D01*
D12*
X129778000Y-64583000D02*
G75*
G02X127778000Y-64583000I-1000000J0D01*
G01*
X127778000Y-64583000D02*
X122318000Y-64583000D01*
X122318000Y-64583000D02*
X122318000Y-115503000D01*
X122318000Y-115503000D02*
X135238000Y-115503000D01*
X135238000Y-115503000D02*
X135238000Y-64583000D01*
X135238000Y-64583000D02*
X129778000Y-64583000D01*
X156828000Y-67123000D02*
X151368000Y-67123000D01*
X156828000Y-102803000D02*
X156828000Y-67123000D01*
X143908000Y-102803000D02*
X156828000Y-102803000D01*
X143908000Y-67123000D02*
X143908000Y-102803000D01*
X149368000Y-67123000D02*
X143908000Y-67123000D01*
X151368000Y-67123000D02*
G75*
G02X149368000Y-67123000I-1000000J0D01*
G01*
X149098000Y-123063000D02*
X146558000Y-123063000D01*
X146558000Y-123063000D02*
X146558000Y-125733000D01*
X149098000Y-125733000D02*
X187328000Y-125733000D01*
X143888000Y-125733000D02*
X146558000Y-125733000D01*
X146558000Y-110363000D02*
X146558000Y-107693000D01*
X146558000Y-110363000D02*
X184658000Y-110363000D01*
X184658000Y-110363000D02*
X184658000Y-107693000D01*
X149098000Y-123063000D02*
X149098000Y-125733000D01*
X149098000Y-123063000D02*
X184658000Y-123063000D01*
X184658000Y-123063000D02*
X184658000Y-125733000D01*
X187328000Y-125733000D02*
X187328000Y-107693000D01*
X187328000Y-107693000D02*
X143888000Y-107693000D01*
X143888000Y-107693000D02*
X143888000Y-125733000D01*
X101586000Y-130067000D02*
X104326000Y-130067000D01*
X104326000Y-130067000D02*
X104326000Y-123527000D01*
X104326000Y-123527000D02*
X101586000Y-123527000D01*
X101586000Y-123527000D02*
X101586000Y-130067000D01*
X102956000Y-130837000D02*
X102956000Y-130067000D01*
X102956000Y-122757000D02*
X102956000Y-123527000D01*
X116164000Y-106961000D02*
X116164000Y-106191000D01*
X116164000Y-98881000D02*
X116164000Y-99651000D01*
X117534000Y-106191000D02*
X117534000Y-99651000D01*
X114794000Y-106191000D02*
X117534000Y-106191000D01*
X114794000Y-99651000D02*
X114794000Y-106191000D01*
X117534000Y-99651000D02*
X114794000Y-99651000D01*
X168088000Y-51833000D02*
X168088000Y-53483000D01*
X188528000Y-51833000D02*
X168088000Y-51833000D01*
X188528000Y-57133000D02*
X188528000Y-51833000D01*
X168088000Y-57133000D02*
X188528000Y-57133000D01*
X168088000Y-55483000D02*
X168088000Y-57133000D01*
X168088000Y-53483000D02*
G75*
G02X168088000Y-55483000I0J-1000000D01*
G01*
X146498000Y-53483000D02*
G75*
G02X146498000Y-55483000I0J-1000000D01*
G01*
X146498000Y-55483000D02*
X146498000Y-57133000D01*
X146498000Y-57133000D02*
X166938000Y-57133000D01*
X166938000Y-57133000D02*
X166938000Y-51833000D01*
X166938000Y-51833000D02*
X146498000Y-51833000D01*
X146498000Y-51833000D02*
X146498000Y-53483000D01*
X177098000Y-134603000D02*
X177098000Y-132953000D01*
X156658000Y-134603000D02*
X177098000Y-134603000D01*
X156658000Y-129303000D02*
X156658000Y-134603000D01*
X177098000Y-129303000D02*
X156658000Y-129303000D01*
X177098000Y-130953000D02*
X177098000Y-129303000D01*
X177098000Y-132953000D02*
G75*
G02X177098000Y-130953000I0J1000000D01*
G01*
X103956000Y-116549000D02*
X108456000Y-116549000D01*
X102706000Y-112549000D02*
X102706000Y-114049000D01*
X108456000Y-110049000D02*
X103956000Y-110049000D01*
X109706000Y-114049000D02*
X109706000Y-112549000D01*
X102810000Y-96873000D02*
X102810000Y-98373000D01*
X104060000Y-100873000D02*
X108560000Y-100873000D01*
X109810000Y-98373000D02*
X109810000Y-96873000D01*
X108560000Y-94373000D02*
X104060000Y-94373000D01*
X101689000Y-84913000D02*
X110509000Y-84913000D01*
X110509000Y-84913000D02*
X110509000Y-85223000D01*
X110509000Y-89433000D02*
X101689000Y-89433000D01*
X101689000Y-85223000D02*
X101689000Y-84913000D01*
X101689000Y-89433000D02*
X101689000Y-89123000D01*
X110509000Y-89433000D02*
X110509000Y-89123000D01*
X103599000Y-84213000D02*
X104099000Y-84713000D01*
X104099000Y-84713000D02*
X104599000Y-84213000D01*
X104599000Y-84213000D02*
X103599000Y-84213000D01*
X172958000Y-67123000D02*
G75*
G02X170958000Y-67123000I-1000000J0D01*
G01*
X170958000Y-67123000D02*
X165498000Y-67123000D01*
X165498000Y-67123000D02*
X165498000Y-102803000D01*
X165498000Y-102803000D02*
X178418000Y-102803000D01*
X178418000Y-102803000D02*
X178418000Y-67123000D01*
X178418000Y-67123000D02*
X172958000Y-67123000D01*
X145348000Y-55483000D02*
G75*
G02X145348000Y-53483000I0J1000000D01*
G01*
X145348000Y-53483000D02*
X145348000Y-51833000D01*
X145348000Y-51833000D02*
X124908000Y-51833000D01*
X124908000Y-51833000D02*
X124908000Y-57133000D01*
X124908000Y-57133000D02*
X145348000Y-57133000D01*
X145348000Y-57133000D02*
X145348000Y-55483000D01*
X104918000Y-81213000D02*
G75*
G02X106918000Y-81213000I1000000J0D01*
G01*
X106918000Y-81213000D02*
X108568000Y-81213000D01*
X108568000Y-81213000D02*
X108568000Y-63313000D01*
X108568000Y-63313000D02*
X103268000Y-63313000D01*
X103268000Y-63313000D02*
X103268000Y-81213000D01*
X103268000Y-81213000D02*
X104918000Y-81213000D01*
X132878000Y-131303000D02*
X132878000Y-119153000D01*
X112728000Y-132053000D02*
X132128000Y-132053000D01*
X111978000Y-119903000D02*
X111978000Y-131303000D01*
X132878000Y-119153000D02*
X112728000Y-119153000D01*
X112728000Y-119153000D02*
G75*
G03X111978000Y-119903000I0J-750000D01*
G01*
X111978000Y-131303000D02*
G75*
G03X112728000Y-132053000I750000J0D01*
G01*
X132128000Y-132053000D02*
G75*
G03X132878000Y-131303000I0J750000D01*
G01*
X114693000Y-96171000D02*
X114693000Y-86931000D01*
X117635000Y-96171000D02*
X117635000Y-86931000D01*
X114693000Y-96171000D02*
X115499000Y-96171000D01*
X116829000Y-96171000D02*
X117635000Y-96171000D01*
X114693000Y-86931000D02*
X115499000Y-86931000D01*
X116829000Y-86931000D02*
X117635000Y-86931000D01*
X182518000Y-68252000D02*
X191758000Y-68252000D01*
X182518000Y-71194000D02*
X191758000Y-71194000D01*
X182518000Y-68252000D02*
X182518000Y-69058000D01*
X182518000Y-70388000D02*
X182518000Y-71194000D01*
X191758000Y-68252000D02*
X191758000Y-69058000D01*
X191758000Y-70388000D02*
X191758000Y-71194000D01*
X153308000Y-61902000D02*
X162548000Y-61902000D01*
X153308000Y-64844000D02*
X162548000Y-64844000D01*
X153308000Y-61902000D02*
X153308000Y-62708000D01*
X153308000Y-64038000D02*
X153308000Y-64844000D01*
X162548000Y-61902000D02*
X162548000Y-62708000D01*
X162548000Y-64038000D02*
X162548000Y-64844000D01*
X116829000Y-76771000D02*
X117635000Y-76771000D01*
X114693000Y-76771000D02*
X115499000Y-76771000D01*
X116829000Y-86011000D02*
X117635000Y-86011000D01*
X114693000Y-86011000D02*
X115499000Y-86011000D01*
X117635000Y-86011000D02*
X117635000Y-76771000D01*
X114693000Y-86011000D02*
X114693000Y-76771000D01*
X108858000Y-54206000D02*
X118098000Y-54206000D01*
X108858000Y-57148000D02*
X118098000Y-57148000D01*
X108858000Y-54206000D02*
X108858000Y-55012000D01*
X108858000Y-56342000D02*
X108858000Y-57148000D01*
X118098000Y-54206000D02*
X118098000Y-55012000D01*
X118098000Y-56342000D02*
X118098000Y-57148000D01*
X191218000Y-131616000D02*
X193338000Y-131616000D01*
X191218000Y-129556000D02*
X191218000Y-131616000D01*
X193338000Y-129556000D02*
X193338000Y-131616000D01*
X191218000Y-129556000D02*
X193338000Y-129556000D01*
X191218000Y-128556000D02*
X191218000Y-127496000D01*
X191218000Y-127496000D02*
X192278000Y-127496000D01*
X188508000Y-138136000D02*
G75*
G03X188508000Y-138136000I-5120000J0D01*
G01*
X188468000Y-138136000D02*
X178308000Y-138136000D01*
X188468000Y-138176000D02*
X178308000Y-138176000D01*
X188468000Y-138216000D02*
X178308000Y-138216000D01*
X188467000Y-138256000D02*
X178309000Y-138256000D01*
X188466000Y-138296000D02*
X178310000Y-138296000D01*
X188465000Y-138336000D02*
X178311000Y-138336000D01*
X188463000Y-138376000D02*
X178313000Y-138376000D01*
X188461000Y-138416000D02*
X178315000Y-138416000D01*
X188458000Y-138456000D02*
X178318000Y-138456000D01*
X188456000Y-138496000D02*
X178320000Y-138496000D01*
X188453000Y-138536000D02*
X178323000Y-138536000D01*
X188450000Y-138576000D02*
X178326000Y-138576000D01*
X188446000Y-138616000D02*
X178330000Y-138616000D01*
X188442000Y-138656000D02*
X178334000Y-138656000D01*
X188438000Y-138696000D02*
X178338000Y-138696000D01*
X188433000Y-138736000D02*
X178343000Y-138736000D01*
X188428000Y-138776000D02*
X178348000Y-138776000D01*
X188423000Y-138816000D02*
X178353000Y-138816000D01*
X188418000Y-138857000D02*
X178358000Y-138857000D01*
X188412000Y-138897000D02*
X178364000Y-138897000D01*
X188406000Y-138937000D02*
X178370000Y-138937000D01*
X188399000Y-138977000D02*
X178377000Y-138977000D01*
X188392000Y-139017000D02*
X178384000Y-139017000D01*
X188385000Y-139057000D02*
X178391000Y-139057000D01*
X188378000Y-139097000D02*
X178398000Y-139097000D01*
X188370000Y-139137000D02*
X178406000Y-139137000D01*
X188362000Y-139177000D02*
X178414000Y-139177000D01*
X188353000Y-139217000D02*
X178423000Y-139217000D01*
X188344000Y-139257000D02*
X178432000Y-139257000D01*
X188335000Y-139297000D02*
X178441000Y-139297000D01*
X188326000Y-139337000D02*
X178450000Y-139337000D01*
X188316000Y-139377000D02*
X178460000Y-139377000D01*
X188306000Y-139417000D02*
X184629000Y-139417000D01*
X182147000Y-139417000D02*
X178470000Y-139417000D01*
X188295000Y-139457000D02*
X184629000Y-139457000D01*
X182147000Y-139457000D02*
X178481000Y-139457000D01*
X188285000Y-139497000D02*
X184629000Y-139497000D01*
X182147000Y-139497000D02*
X178491000Y-139497000D01*
X188273000Y-139537000D02*
X184629000Y-139537000D01*
X182147000Y-139537000D02*
X178503000Y-139537000D01*
X188262000Y-139577000D02*
X184629000Y-139577000D01*
X182147000Y-139577000D02*
X178514000Y-139577000D01*
X188250000Y-139617000D02*
X184629000Y-139617000D01*
X182147000Y-139617000D02*
X178526000Y-139617000D01*
X188238000Y-139657000D02*
X184629000Y-139657000D01*
X182147000Y-139657000D02*
X178538000Y-139657000D01*
X188225000Y-139697000D02*
X184629000Y-139697000D01*
X182147000Y-139697000D02*
X178551000Y-139697000D01*
X188212000Y-139737000D02*
X184629000Y-139737000D01*
X182147000Y-139737000D02*
X178564000Y-139737000D01*
X188199000Y-139777000D02*
X184629000Y-139777000D01*
X182147000Y-139777000D02*
X178577000Y-139777000D01*
X188185000Y-139817000D02*
X184629000Y-139817000D01*
X182147000Y-139817000D02*
X178591000Y-139817000D01*
X188171000Y-139857000D02*
X184629000Y-139857000D01*
X182147000Y-139857000D02*
X178605000Y-139857000D01*
X188156000Y-139897000D02*
X184629000Y-139897000D01*
X182147000Y-139897000D02*
X178620000Y-139897000D01*
X188142000Y-139937000D02*
X184629000Y-139937000D01*
X182147000Y-139937000D02*
X178634000Y-139937000D01*
X188126000Y-139977000D02*
X184629000Y-139977000D01*
X182147000Y-139977000D02*
X178650000Y-139977000D01*
X188111000Y-140017000D02*
X184629000Y-140017000D01*
X182147000Y-140017000D02*
X178665000Y-140017000D01*
X188095000Y-140057000D02*
X184629000Y-140057000D01*
X182147000Y-140057000D02*
X178681000Y-140057000D01*
X188078000Y-140097000D02*
X184629000Y-140097000D01*
X182147000Y-140097000D02*
X178698000Y-140097000D01*
X188062000Y-140137000D02*
X184629000Y-140137000D01*
X182147000Y-140137000D02*
X178714000Y-140137000D01*
X188045000Y-140177000D02*
X184629000Y-140177000D01*
X182147000Y-140177000D02*
X178731000Y-140177000D01*
X188027000Y-140217000D02*
X184629000Y-140217000D01*
X182147000Y-140217000D02*
X178749000Y-140217000D01*
X188009000Y-140257000D02*
X184629000Y-140257000D01*
X182147000Y-140257000D02*
X178767000Y-140257000D01*
X187991000Y-140297000D02*
X184629000Y-140297000D01*
X182147000Y-140297000D02*
X178785000Y-140297000D01*
X187972000Y-140337000D02*
X184629000Y-140337000D01*
X182147000Y-140337000D02*
X178804000Y-140337000D01*
X187952000Y-140377000D02*
X184629000Y-140377000D01*
X182147000Y-140377000D02*
X178824000Y-140377000D01*
X187933000Y-140417000D02*
X184629000Y-140417000D01*
X182147000Y-140417000D02*
X178843000Y-140417000D01*
X187913000Y-140457000D02*
X184629000Y-140457000D01*
X182147000Y-140457000D02*
X178863000Y-140457000D01*
X187892000Y-140497000D02*
X184629000Y-140497000D01*
X182147000Y-140497000D02*
X178884000Y-140497000D01*
X187871000Y-140537000D02*
X184629000Y-140537000D01*
X182147000Y-140537000D02*
X178905000Y-140537000D01*
X187850000Y-140577000D02*
X184629000Y-140577000D01*
X182147000Y-140577000D02*
X178926000Y-140577000D01*
X187828000Y-140617000D02*
X184629000Y-140617000D01*
X182147000Y-140617000D02*
X178948000Y-140617000D01*
X187805000Y-140657000D02*
X184629000Y-140657000D01*
X182147000Y-140657000D02*
X178971000Y-140657000D01*
X187783000Y-140697000D02*
X184629000Y-140697000D01*
X182147000Y-140697000D02*
X178993000Y-140697000D01*
X187759000Y-140737000D02*
X184629000Y-140737000D01*
X182147000Y-140737000D02*
X179017000Y-140737000D01*
X187735000Y-140777000D02*
X184629000Y-140777000D01*
X182147000Y-140777000D02*
X179041000Y-140777000D01*
X187711000Y-140817000D02*
X184629000Y-140817000D01*
X182147000Y-140817000D02*
X179065000Y-140817000D01*
X187686000Y-140857000D02*
X184629000Y-140857000D01*
X182147000Y-140857000D02*
X179090000Y-140857000D01*
X187661000Y-140897000D02*
X184629000Y-140897000D01*
X182147000Y-140897000D02*
X179115000Y-140897000D01*
X187635000Y-140937000D02*
X184629000Y-140937000D01*
X182147000Y-140937000D02*
X179141000Y-140937000D01*
X187609000Y-140977000D02*
X184629000Y-140977000D01*
X182147000Y-140977000D02*
X179167000Y-140977000D01*
X187582000Y-141017000D02*
X184629000Y-141017000D01*
X182147000Y-141017000D02*
X179194000Y-141017000D01*
X187554000Y-141057000D02*
X184629000Y-141057000D01*
X182147000Y-141057000D02*
X179222000Y-141057000D01*
X187526000Y-141097000D02*
X184629000Y-141097000D01*
X182147000Y-141097000D02*
X179250000Y-141097000D01*
X187498000Y-141137000D02*
X184629000Y-141137000D01*
X182147000Y-141137000D02*
X179278000Y-141137000D01*
X187468000Y-141177000D02*
X184629000Y-141177000D01*
X182147000Y-141177000D02*
X179308000Y-141177000D01*
X187438000Y-141217000D02*
X184629000Y-141217000D01*
X182147000Y-141217000D02*
X179338000Y-141217000D01*
X187408000Y-141257000D02*
X184629000Y-141257000D01*
X182147000Y-141257000D02*
X179368000Y-141257000D01*
X187377000Y-141297000D02*
X184629000Y-141297000D01*
X182147000Y-141297000D02*
X179399000Y-141297000D01*
X187345000Y-141337000D02*
X184629000Y-141337000D01*
X182147000Y-141337000D02*
X179431000Y-141337000D01*
X187313000Y-141377000D02*
X184629000Y-141377000D01*
X182147000Y-141377000D02*
X179463000Y-141377000D01*
X187280000Y-141417000D02*
X184629000Y-141417000D01*
X182147000Y-141417000D02*
X179496000Y-141417000D01*
X187246000Y-141457000D02*
X184629000Y-141457000D01*
X182147000Y-141457000D02*
X179530000Y-141457000D01*
X187212000Y-141497000D02*
X184629000Y-141497000D01*
X182147000Y-141497000D02*
X179564000Y-141497000D01*
X187177000Y-141537000D02*
X184629000Y-141537000D01*
X182147000Y-141537000D02*
X179599000Y-141537000D01*
X187141000Y-141577000D02*
X184629000Y-141577000D01*
X182147000Y-141577000D02*
X179635000Y-141577000D01*
X187104000Y-141617000D02*
X184629000Y-141617000D01*
X182147000Y-141617000D02*
X179672000Y-141617000D01*
X187067000Y-141657000D02*
X184629000Y-141657000D01*
X182147000Y-141657000D02*
X179709000Y-141657000D01*
X187028000Y-141697000D02*
X184629000Y-141697000D01*
X182147000Y-141697000D02*
X179748000Y-141697000D01*
X186989000Y-141737000D02*
X184629000Y-141737000D01*
X182147000Y-141737000D02*
X179787000Y-141737000D01*
X186949000Y-141777000D02*
X184629000Y-141777000D01*
X182147000Y-141777000D02*
X179827000Y-141777000D01*
X186908000Y-141817000D02*
X184629000Y-141817000D01*
X182147000Y-141817000D02*
X179868000Y-141817000D01*
X186866000Y-141857000D02*
X184629000Y-141857000D01*
X182147000Y-141857000D02*
X179910000Y-141857000D01*
X186824000Y-141897000D02*
X179952000Y-141897000D01*
X186780000Y-141937000D02*
X179996000Y-141937000D01*
X186735000Y-141977000D02*
X180041000Y-141977000D01*
X186689000Y-142017000D02*
X180087000Y-142017000D01*
X186642000Y-142057000D02*
X180134000Y-142057000D01*
X186594000Y-142097000D02*
X180182000Y-142097000D01*
X186544000Y-142137000D02*
X180232000Y-142137000D01*
X186494000Y-142177000D02*
X180282000Y-142177000D01*
X186442000Y-142217000D02*
X180334000Y-142217000D01*
X186388000Y-142257000D02*
X180388000Y-142257000D01*
X186333000Y-142297000D02*
X180443000Y-142297000D01*
X186277000Y-142337000D02*
X180499000Y-142337000D01*
X186218000Y-142377000D02*
X180558000Y-142377000D01*
X186158000Y-142417000D02*
X180618000Y-142417000D01*
X186097000Y-142457000D02*
X180679000Y-142457000D01*
X186033000Y-142497000D02*
X180743000Y-142497000D01*
X185967000Y-142537000D02*
X180809000Y-142537000D01*
X185898000Y-142577000D02*
X180878000Y-142577000D01*
X185827000Y-142617000D02*
X180949000Y-142617000D01*
X185753000Y-142657000D02*
X181023000Y-142657000D01*
X185677000Y-142697000D02*
X181099000Y-142697000D01*
X185597000Y-142737000D02*
X181179000Y-142737000D01*
X185513000Y-142777000D02*
X181263000Y-142777000D01*
X185425000Y-142817000D02*
X181351000Y-142817000D01*
X185332000Y-142857000D02*
X181444000Y-142857000D01*
X185234000Y-142897000D02*
X181542000Y-142897000D01*
X185130000Y-142937000D02*
X181646000Y-142937000D01*
X185018000Y-142977000D02*
X181758000Y-142977000D01*
X184898000Y-143017000D02*
X181878000Y-143017000D01*
X184766000Y-143057000D02*
X182010000Y-143057000D01*
X184618000Y-143097000D02*
X182158000Y-143097000D01*
X184450000Y-143137000D02*
X182326000Y-143137000D01*
X184250000Y-143177000D02*
X182526000Y-143177000D01*
X183987000Y-143217000D02*
X182789000Y-143217000D01*
X186263000Y-132656354D02*
X186263000Y-133656354D01*
X186763000Y-133156354D02*
X185763000Y-133156354D01*
X170868000Y-141170000D02*
X170868000Y-138230000D01*
X170868000Y-138230000D02*
X165428000Y-138230000D01*
X165428000Y-138230000D02*
X165428000Y-141170000D01*
X165428000Y-141170000D02*
X170868000Y-141170000D01*
X171888000Y-139700000D02*
X170868000Y-139700000D01*
X164408000Y-139700000D02*
X165428000Y-139700000D01*
X169968000Y-141170000D02*
X169968000Y-138230000D01*
X169848000Y-141170000D02*
X169848000Y-138230000D01*
X170088000Y-141170000D02*
X170088000Y-138230000D01*
D10*
X128016095Y-63035380D02*
X128016095Y-63844904D01*
X128063714Y-63940142D01*
X128111333Y-63987761D01*
X128206571Y-64035380D01*
X128397047Y-64035380D01*
X128492285Y-63987761D01*
X128539904Y-63940142D01*
X128587523Y-63844904D01*
X128587523Y-63035380D01*
X129587523Y-64035380D02*
X129016095Y-64035380D01*
X129301809Y-64035380D02*
X129301809Y-63035380D01*
X129206571Y-63178238D01*
X129111333Y-63273476D01*
X129016095Y-63321095D01*
X101427095Y-137184380D02*
X101427095Y-136184380D01*
X101427095Y-136660571D02*
X101998523Y-136660571D01*
X101998523Y-137184380D02*
X101998523Y-136184380D01*
X102427095Y-136279619D02*
X102474714Y-136232000D01*
X102569952Y-136184380D01*
X102808047Y-136184380D01*
X102903285Y-136232000D01*
X102950904Y-136279619D01*
X102998523Y-136374857D01*
X102998523Y-136470095D01*
X102950904Y-136612952D01*
X102379476Y-137184380D01*
X102998523Y-137184380D01*
X149606095Y-65575380D02*
X149606095Y-66384904D01*
X149653714Y-66480142D01*
X149701333Y-66527761D01*
X149796571Y-66575380D01*
X149987047Y-66575380D01*
X150082285Y-66527761D01*
X150129904Y-66480142D01*
X150177523Y-66384904D01*
X150177523Y-65575380D01*
X150558476Y-65575380D02*
X151177523Y-65575380D01*
X150844190Y-65956333D01*
X150987047Y-65956333D01*
X151082285Y-66003952D01*
X151129904Y-66051571D01*
X151177523Y-66146809D01*
X151177523Y-66384904D01*
X151129904Y-66480142D01*
X151082285Y-66527761D01*
X150987047Y-66575380D01*
X150701333Y-66575380D01*
X150606095Y-66527761D01*
X150558476Y-66480142D01*
X142914666Y-117427285D02*
X142914666Y-116951095D01*
X143200380Y-117522523D02*
X142200380Y-117189190D01*
X143200380Y-116855857D01*
X143200380Y-115998714D02*
X143200380Y-116570142D01*
X143200380Y-116284428D02*
X142200380Y-116284428D01*
X142343238Y-116379666D01*
X142438476Y-116474904D01*
X142486095Y-116570142D01*
X103408380Y-126963666D02*
X102932190Y-127297000D01*
X103408380Y-127535095D02*
X102408380Y-127535095D01*
X102408380Y-127154142D01*
X102456000Y-127058904D01*
X102503619Y-127011285D01*
X102598857Y-126963666D01*
X102741714Y-126963666D01*
X102836952Y-127011285D01*
X102884571Y-127058904D01*
X102932190Y-127154142D01*
X102932190Y-127535095D01*
X103408380Y-126011285D02*
X103408380Y-126582714D01*
X103408380Y-126297000D02*
X102408380Y-126297000D01*
X102551238Y-126392238D01*
X102646476Y-126487476D01*
X102694095Y-126582714D01*
X116616380Y-103563857D02*
X116140190Y-103897190D01*
X116616380Y-104135285D02*
X115616380Y-104135285D01*
X115616380Y-103754333D01*
X115664000Y-103659095D01*
X115711619Y-103611476D01*
X115806857Y-103563857D01*
X115949714Y-103563857D01*
X116044952Y-103611476D01*
X116092571Y-103659095D01*
X116140190Y-103754333D01*
X116140190Y-104135285D01*
X116616380Y-102611476D02*
X116616380Y-103182904D01*
X116616380Y-102897190D02*
X115616380Y-102897190D01*
X115759238Y-102992428D01*
X115854476Y-103087666D01*
X115902095Y-103182904D01*
X116616380Y-101659095D02*
X116616380Y-102230523D01*
X116616380Y-101944809D02*
X115616380Y-101944809D01*
X115759238Y-102040047D01*
X115854476Y-102135285D01*
X115902095Y-102230523D01*
X177617523Y-53919380D02*
X177284190Y-53443190D01*
X177046095Y-53919380D02*
X177046095Y-52919380D01*
X177427047Y-52919380D01*
X177522285Y-52967000D01*
X177569904Y-53014619D01*
X177617523Y-53109857D01*
X177617523Y-53252714D01*
X177569904Y-53347952D01*
X177522285Y-53395571D01*
X177427047Y-53443190D01*
X177046095Y-53443190D01*
X178046095Y-53919380D02*
X178046095Y-52919380D01*
X178617523Y-53919380D01*
X178617523Y-52919380D01*
X179617523Y-53919380D02*
X179046095Y-53919380D01*
X179331809Y-53919380D02*
X179331809Y-52919380D01*
X179236571Y-53062238D01*
X179141333Y-53157476D01*
X179046095Y-53205095D01*
X155519523Y-53919380D02*
X155186190Y-53443190D01*
X154948095Y-53919380D02*
X154948095Y-52919380D01*
X155329047Y-52919380D01*
X155424285Y-52967000D01*
X155471904Y-53014619D01*
X155519523Y-53109857D01*
X155519523Y-53252714D01*
X155471904Y-53347952D01*
X155424285Y-53395571D01*
X155329047Y-53443190D01*
X154948095Y-53443190D01*
X155948095Y-53919380D02*
X155948095Y-52919380D01*
X156519523Y-53919380D01*
X156519523Y-52919380D01*
X156948095Y-53014619D02*
X156995714Y-52967000D01*
X157090952Y-52919380D01*
X157329047Y-52919380D01*
X157424285Y-52967000D01*
X157471904Y-53014619D01*
X157519523Y-53109857D01*
X157519523Y-53205095D01*
X157471904Y-53347952D01*
X156900476Y-53919380D01*
X157519523Y-53919380D01*
X166187523Y-131389380D02*
X165854190Y-130913190D01*
X165616095Y-131389380D02*
X165616095Y-130389380D01*
X165997047Y-130389380D01*
X166092285Y-130437000D01*
X166139904Y-130484619D01*
X166187523Y-130579857D01*
X166187523Y-130722714D01*
X166139904Y-130817952D01*
X166092285Y-130865571D01*
X165997047Y-130913190D01*
X165616095Y-130913190D01*
X166616095Y-131389380D02*
X166616095Y-130389380D01*
X167187523Y-131389380D01*
X167187523Y-130389380D01*
X167568476Y-130389380D02*
X168187523Y-130389380D01*
X167854190Y-130770333D01*
X167997047Y-130770333D01*
X168092285Y-130817952D01*
X168139904Y-130865571D01*
X168187523Y-130960809D01*
X168187523Y-131198904D01*
X168139904Y-131294142D01*
X168092285Y-131341761D01*
X167997047Y-131389380D01*
X167711333Y-131389380D01*
X167616095Y-131341761D01*
X167568476Y-131294142D01*
X104924666Y-117803761D02*
X105067523Y-117851380D01*
X105305619Y-117851380D01*
X105400857Y-117803761D01*
X105448476Y-117756142D01*
X105496095Y-117660904D01*
X105496095Y-117565666D01*
X105448476Y-117470428D01*
X105400857Y-117422809D01*
X105305619Y-117375190D01*
X105115142Y-117327571D01*
X105019904Y-117279952D01*
X104972285Y-117232333D01*
X104924666Y-117137095D01*
X104924666Y-117041857D01*
X104972285Y-116946619D01*
X105019904Y-116899000D01*
X105115142Y-116851380D01*
X105353238Y-116851380D01*
X105496095Y-116899000D01*
X105829428Y-116851380D02*
X106067523Y-117851380D01*
X106258000Y-117137095D01*
X106448476Y-117851380D01*
X106686571Y-116851380D01*
X107591333Y-117851380D02*
X107019904Y-117851380D01*
X107305619Y-117851380D02*
X107305619Y-116851380D01*
X107210380Y-116994238D01*
X107115142Y-117089476D01*
X107019904Y-117137095D01*
X104976666Y-102277761D02*
X105119523Y-102325380D01*
X105357619Y-102325380D01*
X105452857Y-102277761D01*
X105500476Y-102230142D01*
X105548095Y-102134904D01*
X105548095Y-102039666D01*
X105500476Y-101944428D01*
X105452857Y-101896809D01*
X105357619Y-101849190D01*
X105167142Y-101801571D01*
X105071904Y-101753952D01*
X105024285Y-101706333D01*
X104976666Y-101611095D01*
X104976666Y-101515857D01*
X105024285Y-101420619D01*
X105071904Y-101373000D01*
X105167142Y-101325380D01*
X105405238Y-101325380D01*
X105548095Y-101373000D01*
X105881428Y-101325380D02*
X106119523Y-102325380D01*
X106310000Y-101611095D01*
X106500476Y-102325380D01*
X106738571Y-101325380D01*
X107071904Y-101420619D02*
X107119523Y-101373000D01*
X107214761Y-101325380D01*
X107452857Y-101325380D01*
X107548095Y-101373000D01*
X107595714Y-101420619D01*
X107643333Y-101515857D01*
X107643333Y-101611095D01*
X107595714Y-101753952D01*
X107024285Y-102325380D01*
X107643333Y-102325380D01*
X106755666Y-84587761D02*
X106898523Y-84635380D01*
X107136619Y-84635380D01*
X107231857Y-84587761D01*
X107279476Y-84540142D01*
X107327095Y-84444904D01*
X107327095Y-84349666D01*
X107279476Y-84254428D01*
X107231857Y-84206809D01*
X107136619Y-84159190D01*
X106946142Y-84111571D01*
X106850904Y-84063952D01*
X106803285Y-84016333D01*
X106755666Y-83921095D01*
X106755666Y-83825857D01*
X106803285Y-83730619D01*
X106850904Y-83683000D01*
X106946142Y-83635380D01*
X107184238Y-83635380D01*
X107327095Y-83683000D01*
X107660428Y-83635380D02*
X107898523Y-84635380D01*
X108089000Y-83921095D01*
X108279476Y-84635380D01*
X108517571Y-83635380D01*
X108803285Y-83635380D02*
X109422333Y-83635380D01*
X109089000Y-84016333D01*
X109231857Y-84016333D01*
X109327095Y-84063952D01*
X109374714Y-84111571D01*
X109422333Y-84206809D01*
X109422333Y-84444904D01*
X109374714Y-84540142D01*
X109327095Y-84587761D01*
X109231857Y-84635380D01*
X108946142Y-84635380D01*
X108850904Y-84587761D01*
X108803285Y-84540142D01*
X171196095Y-65575380D02*
X171196095Y-66384904D01*
X171243714Y-66480142D01*
X171291333Y-66527761D01*
X171386571Y-66575380D01*
X171577047Y-66575380D01*
X171672285Y-66527761D01*
X171719904Y-66480142D01*
X171767523Y-66384904D01*
X171767523Y-65575380D01*
X172196095Y-65670619D02*
X172243714Y-65623000D01*
X172338952Y-65575380D01*
X172577047Y-65575380D01*
X172672285Y-65623000D01*
X172719904Y-65670619D01*
X172767523Y-65765857D01*
X172767523Y-65861095D01*
X172719904Y-66003952D01*
X172148476Y-66575380D01*
X172767523Y-66575380D01*
X134366095Y-52919380D02*
X134366095Y-53728904D01*
X134413714Y-53824142D01*
X134461333Y-53871761D01*
X134556571Y-53919380D01*
X134747047Y-53919380D01*
X134842285Y-53871761D01*
X134889904Y-53824142D01*
X134937523Y-53728904D01*
X134937523Y-52919380D01*
X135842285Y-53252714D02*
X135842285Y-53919380D01*
X135604190Y-52871761D02*
X135366095Y-53586047D01*
X135985142Y-53586047D01*
X105156095Y-81665380D02*
X105156095Y-82474904D01*
X105203714Y-82570142D01*
X105251333Y-82617761D01*
X105346571Y-82665380D01*
X105537047Y-82665380D01*
X105632285Y-82617761D01*
X105679904Y-82570142D01*
X105727523Y-82474904D01*
X105727523Y-81665380D01*
X106108476Y-81665380D02*
X106775142Y-81665380D01*
X106346571Y-82665380D01*
X121618476Y-132505380D02*
X122285142Y-133505380D01*
X122285142Y-132505380D02*
X121618476Y-133505380D01*
X123189904Y-133505380D02*
X122618476Y-133505380D01*
X122904190Y-133505380D02*
X122904190Y-132505380D01*
X122808952Y-132648238D01*
X122713714Y-132743476D01*
X122618476Y-132791095D01*
X116521142Y-91717666D02*
X116568761Y-91765285D01*
X116616380Y-91908142D01*
X116616380Y-92003380D01*
X116568761Y-92146238D01*
X116473523Y-92241476D01*
X116378285Y-92289095D01*
X116187809Y-92336714D01*
X116044952Y-92336714D01*
X115854476Y-92289095D01*
X115759238Y-92241476D01*
X115664000Y-92146238D01*
X115616380Y-92003380D01*
X115616380Y-91908142D01*
X115664000Y-91765285D01*
X115711619Y-91717666D01*
X116616380Y-90765285D02*
X116616380Y-91336714D01*
X116616380Y-91051000D02*
X115616380Y-91051000D01*
X115759238Y-91146238D01*
X115854476Y-91241476D01*
X115902095Y-91336714D01*
X186971333Y-67480142D02*
X186923714Y-67527761D01*
X186780857Y-67575380D01*
X186685619Y-67575380D01*
X186542761Y-67527761D01*
X186447523Y-67432523D01*
X186399904Y-67337285D01*
X186352285Y-67146809D01*
X186352285Y-67003952D01*
X186399904Y-66813476D01*
X186447523Y-66718238D01*
X186542761Y-66623000D01*
X186685619Y-66575380D01*
X186780857Y-66575380D01*
X186923714Y-66623000D01*
X186971333Y-66670619D01*
X187352285Y-66670619D02*
X187399904Y-66623000D01*
X187495142Y-66575380D01*
X187733238Y-66575380D01*
X187828476Y-66623000D01*
X187876095Y-66670619D01*
X187923714Y-66765857D01*
X187923714Y-66861095D01*
X187876095Y-67003952D01*
X187304666Y-67575380D01*
X187923714Y-67575380D01*
X157761333Y-61130142D02*
X157713714Y-61177761D01*
X157570857Y-61225380D01*
X157475619Y-61225380D01*
X157332761Y-61177761D01*
X157237523Y-61082523D01*
X157189904Y-60987285D01*
X157142285Y-60796809D01*
X157142285Y-60653952D01*
X157189904Y-60463476D01*
X157237523Y-60368238D01*
X157332761Y-60273000D01*
X157475619Y-60225380D01*
X157570857Y-60225380D01*
X157713714Y-60273000D01*
X157761333Y-60320619D01*
X158094666Y-60225380D02*
X158713714Y-60225380D01*
X158380380Y-60606333D01*
X158523238Y-60606333D01*
X158618476Y-60653952D01*
X158666095Y-60701571D01*
X158713714Y-60796809D01*
X158713714Y-61034904D01*
X158666095Y-61130142D01*
X158618476Y-61177761D01*
X158523238Y-61225380D01*
X158237523Y-61225380D01*
X158142285Y-61177761D01*
X158094666Y-61130142D01*
X113921142Y-81557666D02*
X113968761Y-81605285D01*
X114016380Y-81748142D01*
X114016380Y-81843380D01*
X113968761Y-81986238D01*
X113873523Y-82081476D01*
X113778285Y-82129095D01*
X113587809Y-82176714D01*
X113444952Y-82176714D01*
X113254476Y-82129095D01*
X113159238Y-82081476D01*
X113064000Y-81986238D01*
X113016380Y-81843380D01*
X113016380Y-81748142D01*
X113064000Y-81605285D01*
X113111619Y-81557666D01*
X113349714Y-80700523D02*
X114016380Y-80700523D01*
X112968761Y-80938619D02*
X113683047Y-81176714D01*
X113683047Y-80557666D01*
X113371333Y-56034142D02*
X113323714Y-56081761D01*
X113180857Y-56129380D01*
X113085619Y-56129380D01*
X112942761Y-56081761D01*
X112847523Y-55986523D01*
X112799904Y-55891285D01*
X112752285Y-55700809D01*
X112752285Y-55557952D01*
X112799904Y-55367476D01*
X112847523Y-55272238D01*
X112942761Y-55177000D01*
X113085619Y-55129380D01*
X113180857Y-55129380D01*
X113323714Y-55177000D01*
X113371333Y-55224619D01*
X114276095Y-55129380D02*
X113799904Y-55129380D01*
X113752285Y-55605571D01*
X113799904Y-55557952D01*
X113895142Y-55510333D01*
X114133238Y-55510333D01*
X114228476Y-55557952D01*
X114276095Y-55605571D01*
X114323714Y-55700809D01*
X114323714Y-55938904D01*
X114276095Y-56034142D01*
X114228476Y-56081761D01*
X114133238Y-56129380D01*
X113895142Y-56129380D01*
X113799904Y-56081761D01*
X113752285Y-56034142D01*
X191944666Y-125948380D02*
X191944666Y-126662666D01*
X191897047Y-126805523D01*
X191801809Y-126900761D01*
X191658952Y-126948380D01*
X191563714Y-126948380D01*
X192944666Y-126948380D02*
X192373238Y-126948380D01*
X192658952Y-126948380D02*
X192658952Y-125948380D01*
X192563714Y-126091238D01*
X192468476Y-126186476D01*
X192373238Y-126234095D01*
X183221333Y-132183142D02*
X183173714Y-132230761D01*
X183030857Y-132278380D01*
X182935619Y-132278380D01*
X182792761Y-132230761D01*
X182697523Y-132135523D01*
X182649904Y-132040285D01*
X182602285Y-131849809D01*
X182602285Y-131706952D01*
X182649904Y-131516476D01*
X182697523Y-131421238D01*
X182792761Y-131326000D01*
X182935619Y-131278380D01*
X183030857Y-131278380D01*
X183173714Y-131326000D01*
X183221333Y-131373619D01*
X183554666Y-131278380D02*
X184221333Y-131278380D01*
X183792761Y-132278380D01*
X166901904Y-140152380D02*
X166901904Y-139152380D01*
X167140000Y-139152380D01*
X167282857Y-139200000D01*
X167378095Y-139295238D01*
X167425714Y-139390476D01*
X167473333Y-139580952D01*
X167473333Y-139723809D01*
X167425714Y-139914285D01*
X167378095Y-140009523D01*
X167282857Y-140104761D01*
X167140000Y-140152380D01*
X166901904Y-140152380D01*
X168425714Y-140152380D02*
X167854285Y-140152380D01*
X168140000Y-140152380D02*
X168140000Y-139152380D01*
X168044761Y-139295238D01*
X167949523Y-139390476D01*
X167854285Y-139438095D01*
X172966095Y-142252380D02*
X172966095Y-141252380D01*
X173537523Y-142252380D02*
X173108952Y-141680952D01*
X173537523Y-141252380D02*
X172966095Y-141823809D01*
X105156095Y-50998380D02*
X105156095Y-49998380D01*
X105156095Y-50474571D02*
X105727523Y-50474571D01*
X105727523Y-50998380D02*
X105727523Y-49998380D01*
X106727523Y-50998380D02*
X106156095Y-50998380D01*
X106441809Y-50998380D02*
X106441809Y-49998380D01*
X106346571Y-50141238D01*
X106251333Y-50236476D01*
X106156095Y-50284095D01*
X191516095Y-54808380D02*
X191516095Y-53808380D01*
X191516095Y-54284571D02*
X192087523Y-54284571D01*
X192087523Y-54808380D02*
X192087523Y-53808380D01*
X192468476Y-53808380D02*
X193087523Y-53808380D01*
X192754190Y-54189333D01*
X192897047Y-54189333D01*
X192992285Y-54236952D01*
X193039904Y-54284571D01*
X193087523Y-54379809D01*
X193087523Y-54617904D01*
X193039904Y-54713142D01*
X192992285Y-54760761D01*
X192897047Y-54808380D01*
X192611333Y-54808380D01*
X192516095Y-54760761D01*
X192468476Y-54713142D01*
X191469095Y-137438380D02*
X191469095Y-136438380D01*
X191469095Y-136914571D02*
X192040523Y-136914571D01*
X192040523Y-137438380D02*
X192040523Y-136438380D01*
X192945285Y-136771714D02*
X192945285Y-137438380D01*
X192707190Y-136390761D02*
X192469095Y-137105047D01*
X193088142Y-137105047D01*
M02*
